<svg id="Layer_1" data-name="Layer 1" xmlns="http://www.w3.org/2000/svg" xmlns:xlink="http://www.w3.org/1999/xlink" viewBox="0 0 1887.9 1186.77"><defs><style>.cls-1{mask:url(#mask);}.cls-2{filter:url(#luminosity-noclip);}</style><filter id="luminosity-noclip" x="196" y="46.72" width="1495.9" height="846.81" filterUnits="userSpaceOnUse" color-interpolation-filters="sRGB"><feFlood flood-color="#fff" result="bg"/><feBlend in="SourceGraphic" in2="bg"/></filter><mask id="mask" x="196" y="46.72" width="1495.9" height="846.81" maskUnits="userSpaceOnUse"><g class="cls-2"><path d="M541.63,228.21l1.13,1.13h1.12l7.19-1.13h7l3.37,2.25,1.35-1.12v-1.13q26.73,0,54.82,25.62l5.84,5.84c0,1.95,1.94,4.71,5.84,8.31l11.68,37.29h1.13v7l-1.13,7,2.25,9.21c-2.4,0-3.59.83-3.59,2.47,2.39,0,3.59,1.13,3.59,3.37q-1.8,36.18-8.09,36.17l1.13,4.72a171.36,171.36,0,0,1-19.77,28.09q-25.4,25.61-57.29,25.61H545.23l-20-1.13v8.09c0,1.5-1.12,2.25-3.37,2.25l3.37,9.43-2.24,7,2.24,2.24-1.12,16.4,1.12,15.28-2.24,4.5,2.24,2.47v4.71L523,503.42l2.24,2.48v13.92L524.11,521l1.12,1.12v3.37H523q5.38,21.12,20.89,21.12l1.35,1.12,8.09-1.12h3.59l2.25,2.25q-23.37,27-33.93,27-22,0-22-8.31l-1.35,1.13h-2.25l-9.21-2.25q-9,9.43-21.12,9.43-19.1,0-35-16.4l-7-11.68,1.12-1.12h4.72q25.62,0,25.61-9.44a88.07,88.07,0,0,0,3.6-24.26l-2.47-7v-7.19L462.33,487l-2.47-2.24v-8.09l1.34-7-1.34-1.34v-1.13l3.59-7c-2.4,0-3.59-.75-3.59-2.25l1.34-5.84-1.34-8.31,2.47-15.05q-1.8,0-4.72-15.28-9-11.46-11.68-11.68l-3.37-4.5,15.05-18.64,2.25-4.72V363.46l1.34-16.18-1.34-3.59,1.34-8.09L459.86,317l1.34-4.72-1.34-9.44,1.34-3.37q0-29-12.8-32.8L441.21,268,439,265.51,428.4,268v-2.47q24.27-27.85,53.7-27.86,4,0,10.56,9.21l1.12,1.12h1.12q13.49-12.79,25.84-15l3.37,1.13Q524.11,229.33,541.63,228.21ZM546.35,268l-5.84-1.35-16.4,15.28,1.12,5.84V297L523,299.43l1.12,3.37L523,323.92l2.24,23.36-1.12,4.5,1.12,9.43v3.37q0,2-11.68,7.19v1.13h1.35l9.21-3.6v1.12L523,375.14q0,8.08,20.89,8.09l3.59,1.35,1.13-1.35q22.24-7,22.24-17.3,2.7-.9,4.72-29.2l-1.13-7V319.2l1.13-10.56-1.13-4.71,1.13-4.5Q569.26,268,552.19,268l-2.47-2.47Z"/><path d="M713.75,228.89q6.74,0,18,10.78Q739.13,230,746.1,230q38.64,0,49.88,29.88l-16.63-4.72q-16.62,1.35-16.62,9.44l1.12,31v7.19l-1.12,9.44,1.12,9.43L762.73,330l1.12,10.78v27.41L782.94,392v2.47q-8.31,11.91-13.25,11.91l1.35,1.12v1.13a24.68,24.68,0,0,0-8.31,16.62l1.12,22.69v20.22h-2.47v10.79l1.35,7.19-1.35,1.12v1.12l2.47,14.38-1.12,27.18,1.12,3.6-1.12,4.72q12.35,14.37,16.62,14.37,7,0,15.5-6.06H796q0,13.49-26.29,21.57l-1.12-1.35h-1.13q-10.34,8.54-16.62,8.54a24.92,24.92,0,0,1-20.22-9.66q0,5.16-20.22,6.06-29.21-5.18-40.66-18l-5.85-7.19,1.13-1.12,14.38,7.18q19.08-5.61,19.09-18l-1.35-1.12v-7.19l2.48-3.6-2.48-9.43,1.35-1.12L697.12,498v-2.47q0-36.62,2.48-50.1l-2.48-7,1.35-7.19-1.35-11.91v-3.59l-17.74-22.69q19.08-23.37,19.09-31l1.13-21.34L697.12,330v-3.37l3.6-32.36q-4.05,0-4.72-22.46l1.12-3.6q0-10.54-17.74-14.37h-1.13q-7.41,0-13.25,6.06v-2.47q11.22-19.32,39.31-28.53Z"/><path d="M1007.63,229.34h1.12c0,1.5,1.2,2.24,3.6,2.24l1.12,31.68a16.65,16.65,0,0,1-7,13.71l1.12-1.35h1.12l1.35,1.35h1.13v-3.6l2.24,2.25-1.12,9.21,1.12,28.31v19.32q0,9.21-4.72,9.21l-8.76-1.13-4.72,1.13-9-1.13-9.21,1.13L976,331.33l1.13-13.48L976,313.14l3.6-6.52q-3.6-1.12-3.6-7l1.13-8.09q0-10.33-26.06-21.34l-6.74-1.13q-23.37,0-29.43,9h-1.13q-2.25,45.38-4.72,51,2.7,0,3.6,8.08l-2.25,12.36,2.25,2.25-1.12,1.12L912.6,354v1.13l-1.12,6.74q0,13.69,7.63,13.7l9.21-3.37,12.59,2.25Q951,371.54,951,356.27q0-6.51-7.87-12.58v-2h1.13Q967,347.73,967,361.89l1.34,4.49v1.12q0,15.74-7,22.92,0,5.38,4.49,5.39L969,410.86q-5.4,23.59-23.59,23.59l-5.84,1.13v-1.13q10.56-10.56,10.56-17.07,0-2.7-12.81-4.49h-3.37L926.08,414,925,412.89V412q-14.6.9-14.6,6.51l2.25,4.72-1.12,23.59,1.12,1.12v1.13l-2.25,9.21v3.59h2.25v6.52l-2.25,7,1.13,1.12v1.13l-1.13,7.86L911.48,498h-1.13l3.37,10.11-2.24,2.47L912.6,514l-1.12,1.13v1.12l2.24,5.39-2.24,2.25a17.29,17.29,0,0,1,4.26,11.23l16.18,4.72q19.77,0,44-20.44L977.08,507,976,505.9v-1.13l1.13-13.48L976,489.94v-1.12l2.25-6.74-2.25-9,2.25-2.24-2.25-3.6v-3.14l1.13-1.12v-1.13l12.35,2.25,3.6-2.25,11.45,1.13h6.75l1.12,1.12h1.12l-2.24,6.74V472l2.24,9.21v3.15l-2.24,9.21,2.24,6.51v3.6a7.34,7.34,0,0,1-7,4.49v2.47l5.84-3.59,1.12,8.09v4.27q-.68,12.35-37.52,44.25-28.31,13.71-36.39,13.71L938.44,576l-5.4,1.35h-4.72q-29,0-46.72-17.08-8.33,8.1-12.36,8.09h-5.62q-16.62,0-38.41-18.2L823,547.91l-3.6-4.72,1.13-1.12q10.78,7,14.82,7h5.85q9.89-4.71,9.88-15l-1.12-4.27,2.47-2.25-2.47-5.84L851,514l-1.12-9.21,2.47-2.24-3.6-3.6,1.13-14.6-1.13-3.15,1.13-10.33v-4.72L851,465l-2.25-4.27,1.13-18.2v-4.72l-1.13-6.74,2.25-4.49c-1.5,0-2.25-1.12-2.25-3.37l1.13-8.09-2.25-2.24h2.25V412q-6.3,0-11.23-12.58l2.47-2.48-1.35-1.12h-8.09v-1.12l17.07-21.34V361.89l1.13-6.74-1.13-3.37L851,338.3q-2.25,0-2.25-3.6L849.92,319l-1.13-1.13v-1.12l2.25-9L848.79,303l1.13-8.09q-.9-30.56-2.25-30.56l-18.2-5.61-11.23,8.09h-1.12v-1.13q0-14.6,33.92-29.43H861.6q9.66,0,18,10.11,25.17-14.82,34.15-14.83l15.95,1.13L942,230.46q0,2.92,14.6,3.6l31.68,13.47Q994.82,247.53,1007.63,229.34Z"/><path d="M1141.78,230.24h14.6a45,45,0,0,0,15.95,3.37q0,3.58,9.89,4.49l17.07,12.58q13.93-10.11,18.2-18.2h1.12v12.36l1.13,1.12v1.35q-1.82,0-3.37,4.49c2.24,0,3.37.68,3.37,2v3.37l-1.13,1.34,1.13,1.13v1.12l-1.13,1.12,1.13,1.13v5.84l-1.13,6.51,1.13,1.13v1.12l-1.13,3.59,1.13,3.37-2.25,2,2.25,2.24-1.13,5.84,1.13,3.37-2.25,4.5,2.25,2.24-1.13,1.13,1.13,1.12v1.12l-1.13,21.57v1.12l-1.12,1.35v.68l2.25,2.47V341l-3.37,4.72,3.37,5.39v2.25l-2.25,2.47h-30.55l-1.13-1.35-1.12,1.35h-5.62l-1.12-1.35h-1.12l-1.13,1.35-1.12-3.59,1.12-18-1.12-1.34v-.68l2.25-7-2.25-2.25V318.3h2.25v-1.12l-2.25-3.15v-1.12l2.25-2.47q0-24.93-14.61-35.05,0-2.91-20.44-5.61v-.9l-5.84,2v-1.12q-14.61,11.46-14.61,32.8l-2,2.24v2.25l.9,8.09-.9,1.12,2,2v12.58h-2l.9,5.62v3.37l-.9,7,2,6.51-1.12,1.12,1.12,1.35v2.25l-2,10.11.9,4.49h-.9l2,9v4.49l-1.12,4.72q0,2.92,19.32,23.59-4.5,7.41-16,17.07l-4.27,16.85v5.84l.9,4.27-.9,4.5,2,4.71-2,9,2,8.09-2,2.24-5.84-2.24h-1.12v1.12q7.86.9,7.86,5.39l-.9,7,2,9-1.12,1.13v1.12q7.18,29.21,21.57,29.21h7q28.08-11.91,28.09-33.48l1.12-1.35,3.14,1.35h3.6v-1.35q-9,0-9-9.21l1.13-1.12L1175.7,487l1.13-13.48-1.13-7,1.13-1.12h2.24l2,2.24,3.6-1.12,32.8-1.12v3.37h-1.12l2.24,19.32v13.48l-2.24,3.59,2.24,3.15-1.12,5.61v3.6h-3.6v-2.47h-2q0,3.58,4.5,3.59l1.12,1.12V521q-8.31,24.7-29.43,37.07-14.16,18.19-49.88,18.19-8.31,0-34.82-17.07a314.76,314.76,0,0,1-23.81-31.68v-2.24l1.12-3.6h-1.12q-2.25,0-10.11-22.24l1.12-1.12-5.62-7-5.84-23.59-2-13.48.9-1.12V452q0-16.86-20.22-33l-3.37-4.49,15.73-19.1,3.59-19.09-1.12-1.35q1.13-13.49,3.37-15.73l-1.13-4.72,2.25-4.49-1.12-3.14q10.33-48.3,19.09-60.21.67-6.53,4.5-6.52v-2.47q0-8.31,8.09-13.48,3.13-12.81,22.46-21.57,1.13-3.81,12.36-6.51Q1122.46,230.23,1141.78,230.24Z"/><path d="M1433.86,229.34H1435c0,1.5,1.19,2.24,3.59,2.24l1.12,31.68a16.65,16.65,0,0,1-7,13.71l1.12-1.35H1435l1.34,1.35h1.13v-3.6l2.24,2.25-1.12,9.21,1.12,28.31v19.32q0,9.21-4.71,9.21l-8.77-1.13-4.71,1.13-9-1.13-9.21,1.13-1.12-10.34,1.12-13.48-1.12-4.71,3.59-6.52c-2.4-.75-3.59-3.07-3.59-7l1.12-8.09q0-10.33-26.06-21.34l-6.74-1.13q-23.37,0-29.43,9H1340q-2.23,45.38-4.71,51,2.68,0,3.59,8.08l-2.25,12.36,2.25,2.25-1.12,1.12,1.12,1.12v1.13l-1.12,6.74q0,13.69,7.64,13.7l9.21-3.37,12.58,2.25q10.11-2.93,10.11-18.2,0-6.51-7.86-12.58v-2h1.12q22.68,6.06,22.69,20.22l1.35,4.49v1.12q0,15.74-7,22.92,0,5.38,4.5,5.39l3.14,15.05q-5.38,23.59-23.59,23.59l-5.84,1.13v-1.13q10.56-10.56,10.56-17.07,0-2.7-12.81-4.49h-3.37l-7.86,1.12-1.12-1.12V412q-14.61.9-14.61,6.51l2.25,4.72-1.12,23.59,1.12,1.12v1.13l-2.25,9.21v3.59h2.25v6.52l-2.25,7,1.13,1.12v1.13l-1.13,7.86,1.13,12.58h-1.13l3.37,10.11-2.24,2.47,1.12,3.37-1.12,1.13v1.12l2.24,5.39-2.24,2.25A17.3,17.3,0,0,1,1342,535.1l16.17,4.72q19.77,0,44-20.44l1.12-12.36-1.12-1.12v-1.13l1.12-13.48-1.12-1.35v-1.12l2.24-6.74-2.24-9,2.24-2.24-2.24-3.6v-3.14l1.12-1.12v-1.13l12.36,2.25,3.59-2.25,11.46,1.13h6.74l1.12,1.12h1.12l-2.24,6.74V472l2.24,9.21v3.15l-2.24,9.21,2.24,6.51v3.6a7.34,7.34,0,0,1-7,4.49v2.47l5.84-3.59,1.12,8.09v4.27q-.67,12.35-37.51,44.25-28.32,13.71-36.4,13.71l-1.12-1.35-5.4,1.35h-4.71q-29,0-46.73-17.08-8.32,8.1-12.36,8.09h-5.62q-16.62,0-38.41-18.2l-2.25-2.24-3.59-4.72,1.12-1.12q10.79,7,14.83,7h5.84q9.88-4.71,9.88-15l-1.12-4.27,2.47-2.25-2.47-5.84,1.12-7.64-1.12-9.21,2.47-2.24-3.59-3.6,1.12-14.6-1.12-3.15,1.12-10.33v-4.72l1.12-1.12-2.24-4.27,1.12-18.2v-4.72l-1.12-6.74,2.24-4.49c-1.5,0-2.24-1.12-2.24-3.37l1.12-8.09-2.25-2.24h2.25V412q-6.29,0-11.23-12.58l2.47-2.48-1.35-1.12H1258v-1.12L1275,373.35V361.89l1.12-6.74-1.12-3.37,2.24-13.48c-1.5,0-2.24-1.2-2.24-3.6l1.12-15.72-1.12-1.13v-1.12l2.24-9L1275,303l1.12-8.09q-.9-30.56-2.25-30.56l-18.19-5.61-11.24,8.09h-1.12v-1.13q0-14.6,33.92-29.43h10.56q9.66,0,18,10.11Q1331,231.59,1340,231.58l16,1.13,12.35-2.25q0,2.92,14.6,3.6l31.68,13.47Q1421.05,247.53,1433.86,229.34Z"/><path d="M810.85,657.88c0,.29,0,.81-.09,1.55q-2,15.6-2,51.17,0,7.57.17,22.82t.18,22.83q0,3.36-2.85,3.36t-8.18.17q-5.34.18-8,.18t-2.67-2.16q0-1.8,1.12-31.7.51-14.46.52-42.2c0-1.32-.29-2-.87-2a25,25,0,0,0-6.5,1.38,24.88,24.88,0,0,1-6.59,1.38c-1.32,0-2-.34-2-1a30.87,30.87,0,0,1,.22-3.1c.14-1.38.21-2.42.21-3.1s-.06-1.58-.17-2.85-.17-2.21-.17-2.84.63-1.38,1.89-1.9a38.5,38.5,0,0,0,10.6-7.06q.25-.25,4.73-5.17c2.59-2.81,4-4.22,4.31-4.22-.06,0,2.33.52,7.15,1.55q2.67.34,7.75,1.3A1.53,1.53,0,0,1,810.85,657.88Z"/><path d="M913,701.9q0,26.45-18.18,44.62t-44.62,18.17a2.27,2.27,0,0,1-2.32-1.55q-4.14-10.68-4.14-13.09c0-1.26,1.09-1.9,3.28-1.9a51.1,51.1,0,0,0,23.68-5.51,40.32,40.32,0,0,0,11.63-9.39q6.46-7.23,6.46-13.09,0-.78-.6-.78a5.23,5.23,0,0,0-2,.87,37.69,37.69,0,0,1-19.81,5.51q-14.91,0-24.21-9.3t-9.3-24.21q0-18.09,10.85-28.25,10.51-9.91,28.69-9.91,20.14,0,30.92,14.21Q913,681.14,913,701.9Zm-19.9-7.24q0-10-5.08-16.88A17.83,17.83,0,0,0,872.79,670q-21,0-21,22.22a20.22,20.22,0,0,0,5.47,14.47,18.64,18.64,0,0,0,14.17,5.77,24.83,24.83,0,0,0,14.9-4.39A15.68,15.68,0,0,0,893.12,694.66Z"/><path d="M1011.31,701.9q0,26.45-18.17,44.62t-44.62,18.17a2.28,2.28,0,0,1-2.33-1.55q-4.12-10.68-4.13-13.09c0-1.26,1.09-1.9,3.27-1.9A51.17,51.17,0,0,0,969,742.64a40.45,40.45,0,0,0,11.63-9.39q6.45-7.23,6.46-13.09c0-.52-.2-.78-.61-.78a5.3,5.3,0,0,0-2,.87,37.66,37.66,0,0,1-19.81,5.51q-14.9,0-24.2-9.3t-9.31-24.21q0-18.09,10.86-28.25,10.5-9.91,28.68-9.91,20.16,0,30.92,14.21Q1011.32,681.14,1011.31,701.9Zm-19.9-7.24q0-10-5.08-16.88A17.8,17.8,0,0,0,971.09,670q-21,0-21,22.22a20.18,20.18,0,0,0,5.47,14.47q5.46,5.78,14.17,5.77a24.87,24.87,0,0,0,14.9-4.39A15.67,15.67,0,0,0,991.41,694.66Z"/><path d="M1102,724.81q0,18.69-12.14,28.34-11.12,9-30.23,9-6.12,0-18.18-2.24-15-2.76-15-5.94a61.58,61.58,0,0,1,1.29-9.91q1.47-7.92,2.85-7.92-1.21,0,7.71,4.69t16.75,4.69q10.77,0,17.49-4.3,7.92-5.17,7.92-15.25,0-16.87-24.81-16.88a69.35,69.35,0,0,0-9.6,1,70.42,70.42,0,0,1-8.83.94c-1.27,0-2.07-.37-2.41-1.12a5,5,0,0,1-.18-1.55c-.05-1.2,0-2.9.09-5.08.06-2.47.09-4.16.09-5.08q0-6.29-.18-18.91t-.17-18.91c0-.8.65-1.79,1.94-3s2.34-1.76,3.14-1.76q4.48,0,13.53.38t13.61.39q4.3,0,13-.43t13.13-.43c1.32,0,2,.55,2,1.64a48.93,48.93,0,0,1-.82,6.63,47.26,47.26,0,0,0-.82,7.32,2.77,2.77,0,0,1-1.34,2,4.08,4.08,0,0,1-2.37,1q-4.47,0-13.39-.52t-13.39-.52c-4.25,0-8,.09-11.2.26q0,7.07-.86,21.71a72.67,72.67,0,0,0,7.79-.61,75.15,75.15,0,0,1,7.88-.6q15.86,0,25.24,7.32Q1102,709.31,1102,724.81Z"/><rect x="1169.53" y="698.39" width="145.73" height="10"/><rect x="572.64" y="698.39" width="145.73" height="10"/></g></mask></defs><title>Artboard 1 copy</title><path d="M380.72,830.2c50.39,28.53,106.16,52.84,166.57,72.65L254.11,1100.6l17.32-176.85L101,873.56l173.52-117L279,760.3C309,785.44,343.21,809,380.72,830.2Z"/><path d="M226,1143.68l3.88-39.67,16-163L88.73,894.74,50.49,883.48,259.05,742.81q-7.59-7-14.78-14.16L0,893.41l76.48,22.53,143.77,42.33-14.61,149.16-7.76,79.34,398.81-269q-12.65-3.48-25-7.24Z"/><g class="cls-1"><path d="M944,893.53C530.87,893.53,196,704,196,470.13S530.87,46.72,944,46.72s748,189.57,748,423.41S1357,893.53,944,893.53Z"/></g><path d="M1720.64,368.91c-11.39-31.51-28.25-62.31-50.09-91.55-20.91-28-46.6-54.82-76.38-79.77-28.93-24.24-62-47-98.33-67.52C1423.35,89,1339.28,56.9,1246,34.56,1150.2,11.62,1048.59,0,944,0s-206.24,11.62-302,34.56C548.62,56.9,464.55,89,392.06,130.07c-36.32,20.56-69.4,43.28-98.33,67.52-29.78,24.95-55.47,51.78-76.38,79.77-21.84,29.24-38.7,60-50.09,91.55a293.88,293.88,0,0,0,0,202.43c11.39,31.52,28.25,62.33,50.09,91.57,20.91,28,46.6,54.81,76.38,79.76,28.93,24.24,62,47,98.33,67.51,72.49,41,156.56,73.18,249.88,95.52,95.77,22.93,197.38,34.55,302,34.55s206.25-11.62,302-34.55c93.31-22.34,177.38-54.48,249.87-95.52,36.32-20.56,69.4-43.27,98.33-67.51,29.78-24.95,55.47-51.79,76.38-79.76,21.84-29.24,38.7-60,50.09-91.57a293.88,293.88,0,0,0,0-202.43Zm-5.46,107.69c0,1.74-.1,3.47-.17,5.18a.66.66,0,0,0,0,.14,274.85,274.85,0,0,1-16.33,81.48,325.89,325.89,0,0,1-39.19,74.91q-2.77,4-5.69,8c-.64.89-1.3,1.77-2,2.65q-3.72,5-7.65,9.9c-1.29,1.63-2.6,3.24-3.94,4.86,0,0,0,0,0,.06q-2,2.4-4,4.79l-.09.09q-2.43,2.86-4.94,5.7-1.61,1.81-3.23,3.62c-.68.76-1.37,1.51-2,2.26a487.47,487.47,0,0,1-46.72,44.56,608.42,608.42,0,0,1-66,47.87q-7.68,4.83-15.6,9.55c-4.36,2.58-8.77,5.15-13.23,7.67-70.59,40-152.63,71.3-243.81,93.13-94,22.5-193.77,33.91-296.58,33.91S741.36,905.48,647.38,883c-91.19-21.83-173.23-53.17-243.81-93.13-4.46-2.52-8.87-5.09-13.23-7.67q-7.92-4.71-15.6-9.55a607.44,607.44,0,0,1-66-47.87,489.83,489.83,0,0,1-44.59-42.23l-2.61-2.84-2.61-2.89c-1.71-1.91-3.4-3.82-5.06-5.75l-2.69-3.15q-1.77-2.08-3.48-4.16-6-7.37-11.63-14.82c-.65-.88-1.31-1.76-1.95-2.65-2.52-3.41-5-6.85-7.3-10.29q-.9-1.31-1.77-2.61a324.06,324.06,0,0,1-35.82-70,275.49,275.49,0,0,1-16.33-81.48.66.66,0,0,0,0-.14c-.07-1.72-.13-3.45-.17-5.18-.05-2.16-.08-4.31-.08-6.47s0-4.31.08-6.46c0-1.73.1-3.47.17-5.2a.53.53,0,0,0,0-.12,275.55,275.55,0,0,1,16.33-81.49,323.83,323.83,0,0,1,35.82-70q.87-1.31,1.77-2.61,3.52-5.17,7.3-10.3c.64-.89,1.3-1.76,1.95-2.64q5.58-7.45,11.63-14.81a471,471,0,0,1,61-61,622.26,622.26,0,0,1,81.6-57.41q6.54-3.89,13.23-7.67c70.58-40,152.62-71.3,243.81-93.13,94-22.51,193.77-33.92,296.57-33.92s202.59,11.41,296.58,33.92c91.18,21.83,173.22,53.16,243.81,93.13q6.69,3.78,13.23,7.67a623.6,623.6,0,0,1,81.6,57.41,472.27,472.27,0,0,1,61,61c1.34,1.62,2.67,3.27,4,4.9q3.93,4.94,7.65,9.91c.65.88,1.31,1.75,2,2.64q2.93,4,5.69,8a326,326,0,0,1,39.19,74.92A274.92,274.92,0,0,1,1715,458.35a.53.53,0,0,0,0,.12c.07,1.73.13,3.46.17,5.2q.08,3.22.08,6.46C1715.26,472.29,1715.23,474.44,1715.18,476.6Z"/><path d="M1507.18,830.2C1456.79,858.73,1401,883,1340.61,902.85l293.18,197.75-17.32-176.85,170.46-50.19-173.52-117-4.47,3.78C1578.93,785.44,1544.69,809,1507.18,830.2Z"/><path d="M1316.24,910.53q-12.39,3.75-25,7.24l398.81,269-7.76-79.34-14.61-149.16,143.77-42.33,76.48-22.53L1643.63,728.65q-7.19,7.17-14.78,14.16l208.56,140.67-38.24,11.26L1642.06,941l16,163,3.88,39.67Z"/></svg>