<svg xmlns="http://www.w3.org/2000/svg" xmlns:xlink="http://www.w3.org/1999/xlink" width="658" height="393.799" viewBox="0 0 658 393.799"><defs><radialGradient id="a" cx="0.5" cy="0.458" r="0.717" gradientTransform="translate(0.201 0.096) scale(0.598 0.791)" gradientUnits="objectBoundingBox"><stop offset="0" stop-color="#260d0d"/><stop offset="1" stop-color="#140505"/></radialGradient></defs><g transform="translate(2316 -1016.5)"><path d="M217.114,409.3h0a37.314,37.314,0,0,1-4.612-.3c-9.361-1.17-15.888-4.394-19.953-9.857-3.966-5.329-5.657-12.8-5.323-23.512.3-9.657,2.232-21.13,4.278-33.276l.005-.032,0-.007,0-.016c1.636-9.712,3.326-19.751,4.487-30.3,5.307-48.252-8.168-64.091-20.5-72.5a30.007,30.007,0,0,0-8.944-3.775,47.823,47.823,0,0,0-12.01-1.545c-7.744,0-26.028,2.175-28.546,22.321-1.769,12.385-4.586,21.413-8.37,26.833A15,15,0,0,1,112.75,288a8.969,8.969,0,0,1-4.379,1.167A8.64,8.64,0,0,1,104,288V15.5H762V287.975a9.828,9.828,0,0,1-2.587-.89,39.495,39.495,0,0,1-3.96-7.28,42.607,42.607,0,0,1-2.828-10.492A40.075,40.075,0,0,1,752.5,258.5a186.291,186.291,0,0,0,.5-20.563,119.05,119.05,0,0,0-1.766-17.618c-1.192-6.4-2.953-11.555-5.234-15.321-5.49-9.058-13.616-14.911-20.7-14.911-6.826,0-12.082,5.3-14.8,14.911-1.8,6.357-4.486,11.237-7.994,14.5a14.317,14.317,0,0,1-9.857,4.217A10.532,10.532,0,0,1,683,218a30.43,30.43,0,0,0-6.961-9.113,22.146,22.146,0,0,0-4.806-3.35,11.331,11.331,0,0,0-5.014-1.321c-3.158,0-5.755,1.777-7.719,5.283-4.663,6.691-10.423,10.084-17.121,10.084a26.9,26.9,0,0,1-11.57-2.947A52.96,52.96,0,0,1,619,209.5a12.762,12.762,0,0,0-8.279-3.209c-4.669,0-9.519,2.752-13.658,7.75a36.283,36.283,0,0,0-5.062,8.2,40.068,40.068,0,0,0-3,9.76,101.341,101.341,0,0,1-2.484,11.36A33.49,33.49,0,0,1,583,251.625a20.428,20.428,0,0,1-5.39,5.827,30.488,30.488,0,0,1-8.11,4.047,9.756,9.756,0,0,1-3.194.536c-2.859,0-5.891-1.206-9.013-3.585a39.563,39.563,0,0,1-8.022-8.644,55.735,55.735,0,0,1-5.831-10.538A28.961,28.961,0,0,1,541,230l-.011-.227c-.243-5.358-.518-11.431-2.4-17.205A30.827,30.827,0,0,0,526.5,196.5a6.784,6.784,0,0,0-3.946-1.321c-12.806,0-27.789,38.219-30.054,61.322a161.116,161.116,0,0,1-3.024,19.164,116.091,116.091,0,0,1-5.414,17.9,64.034,64.034,0,0,1-7.945,14.618A30.885,30.885,0,0,1,465.5,317.5a17.035,17.035,0,0,1-7.582,1.973c-5.464,0-10.315-3.322-14.418-9.876-3.568-5.7-6.508-13.857-8.5-23.6-.717-3.505-1.3-6.787-1.763-9.423-1.4-7.892-2.5-14.122-5.423-19.959-3.1-6.2-8.13-11.629-16.313-17.617-4.854-3.551-9.765-5.351-14.6-5.351-6.5,0-12.884,3.313-18.458,9.582a51.964,51.964,0,0,0-6.936,10.157A70.514,70.514,0,0,0,366.5,265.5c-2.156,6.132-4.827,10.4-8.165,13.046a15.785,15.785,0,0,1-10.21,3.313A44.292,44.292,0,0,1,338.5,280.5c-6.1-1.387-7.878-5.043-11.1-11.68A109.386,109.386,0,0,0,314,247a36.62,36.62,0,0,0-15.95-11.436,55.223,55.223,0,0,0-19.649-3.442c-12.825,0-25.151,3.878-31.4,9.878-4.51,4.626-7.891,11.906-10.047,21.64a141.444,141.444,0,0,0-2.829,29.235C234,313.015,236.742,332.469,238.5,340a153.591,153.591,0,0,1,3.839,28.873,80.165,80.165,0,0,1-1.262,17.768c-1.219,6.1-3.306,11.037-6.2,14.688a20.258,20.258,0,0,1-7.267,5.82A24.46,24.46,0,0,1,217.114,409.3Z" transform="translate(-2420 1001)" fill="url(#a)"/><path d="M211.973,371.067a13.067,13.067,0,0,1-5.512-1.358,19.4,19.4,0,0,1-6.061-4.631,29.083,29.083,0,0,1-5.253-8.736,50.02,50.02,0,0,1-3.094-13.675c-.133-10.131.579-11.96.892-12.276a.152.152,0,0,1,.1-.058h.009a68.233,68.233,0,0,0,4.03,15.333,47.751,47.751,0,0,0,6.893,12.229,29.4,29.4,0,0,0,11.794,9.1,2.266,2.266,0,0,1,.277,2.4C215.484,370.442,213.96,371.065,211.973,371.067Zm19.075-22.177c-1.921,0-3.4-3.52-3.415-3.556a10.046,10.046,0,0,1,1-6.667,1.9,1.9,0,0,1,1.684-1.12,3.583,3.583,0,0,1,2.578,1.572,7.011,7.011,0,0,1,1.283,2.736,7.357,7.357,0,0,1-.032,3.479C233.211,347.694,232.169,348.89,231.048,348.89Zm-36.421-28.838c-.024,0-.048-.018-.067-.051-.493-.82-.005-12.55,0-12.667.005-.018.6-1.777,1.089-1.777.287,0,.482.6.581,1.777.3,3.609-.928,12.021-1.535,12.68A.1.1,0,0,1,194.627,320.053Zm2.048-22.386a1.714,1.714,0,0,1-1.113-.666v-.01c.122-.716,1.212-7.008,2-7.323a.169.169,0,0,1,.064-.013c.074,0,.142.053.2.157a8.985,8.985,0,0,1,.351,3.455,10.493,10.493,0,0,1-.617,3.735A1.066,1.066,0,0,1,196.674,297.667Zm260.248-17.912c-3.089,0-5.97-1.419-8.562-4.219a32.142,32.142,0,0,1-5.632-9.283,70.253,70.253,0,0,1-4.037-13.5c.008-.075.061-.446.31-.446.158,0,.363.15.609.446.465.555.539.722.519.765a.023.023,0,0,1-.024.013.175.175,0,0,1-.075-.028,80.473,80.473,0,0,0,4.309,12.175,34.9,34.9,0,0,0,5.108,8.37c2.213,2.524,4.51,3.8,6.827,3.8.149,0,.3-.005.458-.016,10.722-.772,16.165-8.462,23.637-24.333.5-.648.8-.949.958-.949a.09.09,0,0,1,.079.042c.169.24-.171,1.518-1.038,3.907a54.586,54.586,0,0,1-7.058,13.28,29.486,29.486,0,0,1-6.895,6.84,17.107,17.107,0,0,1-9.183,3.129C457.1,279.753,457.012,279.755,456.922,279.755ZM199.808,265.747c-.932,0-1.4-23.015-1.408-23.247.011-.078.268-1.909.783-1.909.226,0,.469.362.721,1.076,1,2.824,1,22.338,0,24C199.872,265.721,199.84,265.747,199.808,265.747Zm20.44-10.715c-.105,0-.206-.235-.3-.7-.424-2.123.02-18.441.835-25.834a31.867,31.867,0,0,1,3.226-10c1.378-2.753,2.827-4.81,3.2-4.81a.068.068,0,0,1,.056.023.281.281,0,0,1,.031.2,56.7,56.7,0,0,0-3.414,11.477c-.775,3.777-1.439,8.117-1.973,12.9-.89,7.967-1.126,14.813-1.128,14.876S220.538,255.032,220.248,255.032ZM107.56,248.684c-1.253,0-2.443-.791-3.537-2.35a.388.388,0,0,1-.023-.059v-7.411c.008-.2.014-.356.019-.445l0-.043v-.023c0-.009,0-.015,0-.018l.006.006a22.735,22.735,0,0,0,2.1,2.666c1.128,1.22,2.793,2.674,4.319,2.674.069,0,.146,0,.258-.014a1.266,1.266,0,0,1,.147-.009.681.681,0,0,1,.634.321,2.532,2.532,0,0,1-.366,2.191A4.452,4.452,0,0,1,107.56,248.684ZM762,240.917h0a51.788,51.788,0,0,1-2.648-14.488c0-.057.006-.082.018-.082a14.473,14.473,0,0,1,.721,2.251l0,.005v0c.52,1.8,1.231,4.264,1.907,5.986v6.322Zm-413.935-1.644h0a9.137,9.137,0,0,1-5.064-1.7,18.911,18.911,0,0,1-3.989-3.731,30.727,30.727,0,0,1-3.55-5.425.292.292,0,0,1,.275-.246c.28,0,.85.375,1.979,2.159,3.467,4.64,6.95,6.992,10.353,6.992,4.742,0,7.649-4.628,7.771-4.825a1.762,1.762,0,0,1,1.37-.959.528.528,0,0,1,.494.258c.148.271.05.7-.276,1.2C354.439,237.163,351.289,239.273,348.065,239.273Zm89.2-2.7a.919.919,0,0,1-.556-.194c-.019-.058-1.807-5.855-1.356-6.463a.118.118,0,0,1,.1-.052.159.159,0,0,1,.068.015c.737.293,2.215,4.027,2.416,5.759.048.41.014.66-.1.741A1,1,0,0,1,437.263,236.57Zm-3.1-11.134a1.786,1.786,0,0,1-.731-.185v-.007a14.739,14.739,0,0,0-.554-3.618,12.113,12.113,0,0,0-4.124-6.375c-.144-.253-.18-.455-.1-.586a.387.387,0,0,1,.36-.156c1.081,0,3.846,1.885,5.34,6.242.778,2.263.944,3.728.493,4.357A.787.787,0,0,1,434.16,225.436ZM564.3,222.943a8.99,8.99,0,0,1-5.977-2.372,18.57,18.57,0,0,1-4.32-5.585,25.158,25.158,0,0,1-2.105-5.88,27.324,27.324,0,0,1-.733-6.533.023.023,0,0,1,0,.007,31.919,31.919,0,0,0,4.416,7.186,24.425,24.425,0,0,0,5.667,5.159,17.518,17.518,0,0,0,8.1,2.788c1.1.057,1.7.484,1.678,1.2C570.989,220.507,567.958,222.943,564.3,222.943Zm-446.261-.73h0c-.562-.032-.728-.77-.745-.854.007-.066.75-6.523,1.822-6.523l.038,0c.388.052.406.975.353,1.741C119.355,218.738,118.453,222.214,118.043,222.214Zm367.585-1.221,0-.008a36.708,36.708,0,0,1-.029-4.827,77.411,77.411,0,0,1,2.036-13.657c2.006-6.637,4.39-14.316,6.859-20.938a91.834,91.834,0,0,1,7.4-15.917,31.5,31.5,0,0,1,9.21-10.119,21.576,21.576,0,0,1,12.285-3.546c.383,0,.745.007,1.078.021,6.705.254,12.093,3.963,16.012,11.024a51.79,51.79,0,0,1,5.341,16.745c-.861-2.967-3.176-8.632-9.326-18.769-5.209-4.7-10.271-7.085-15.045-7.085-5.822,0-11.327,3.527-16.363,10.482-4.03,5.564-7.77,13.323-11.117,23.061a219.925,219.925,0,0,0-8.338,33.532ZM363.2,217.561a.1.1,0,0,1-.1-.06,81.125,81.125,0,0,1,9.708-14.889,50.8,50.8,0,0,1,11.079-10.235,26.009,26.009,0,0,1,14.288-4.653,24.559,24.559,0,0,1,11.848,3.224A47.235,47.235,0,0,1,422.9,202c1,1.77,1.535,3.027,1.388,3.281a.1.1,0,0,1-.085.047c-.341,0-1.4-1.182-2.974-3.327a29.028,29.028,0,0,0-7.15-6.538,27.668,27.668,0,0,0-6.292-3.072,24.667,24.667,0,0,0-7.876-1.3c-10.026,0-20.275,6.025-30.465,17.907C364.726,216.727,363.506,217.561,363.2,217.561Zm214.378-1.946c-1.5,0-1.923-2.831-1.927-2.859s1.065-4.351,3.722-5.327a1.914,1.914,0,0,1,.664-.13,1.322,1.322,0,0,1,1.245.909c.622,1.45.069,4.3-1.909,6.364A2.734,2.734,0,0,1,577.58,215.616Zm-457-4.687a.057.057,0,0,1-.048-.024c-.054-.077.009-.345.191-.82A24.543,24.543,0,0,1,124.121,204a27.331,27.331,0,0,1,3.966-4.2,24.129,24.129,0,0,1,4.666-3.218,1.758,1.758,0,0,1,.388-.053c.163,0,.265.04.3.118.055.118-.037.32-.273.6-2.955,1.95-6.932,6.936-9.563,10.236l-.006.008-.011.013-.02.024,0,.006C122,209.506,120.864,210.928,120.583,210.928Zm636.8-.46c-.246,0-.466-1.17-.468-1.182a121.933,121.933,0,0,0-1.379-21.982,75.971,75.971,0,0,0-4.964-18.1c-2.753-6.392-6.351-11.268-10.7-14.493-4.813-3.026-9.451-4.56-13.784-4.56a17.733,17.733,0,0,0-8.216,2.007,22.119,22.119,0,0,0-5.795,4.415A27.071,27.071,0,0,0,707.519,163a2.354,2.354,0,0,1-.959.352.335.335,0,0,1-.323-.164c-.257-.477.415-1.934,2-4.331,3.448-5.22,7.948-10.788,17.746-10.788a33.2,33.2,0,0,1,6.88.788c9.71,2.561,16.749,9.872,20.922,21.731,3.535,10.044,4.277,21.383,4.277,29.126C758.061,208.6,757.693,210.469,757.384,210.469Zm-565.19-1.092h0a4.494,4.494,0,0,1-.4-.344l0,0-.021-.019-.033-.03a83.361,83.361,0,0,0-10.281-7.945,60.2,60.2,0,0,0-10.974-5.735,35.345,35.345,0,0,0-12.712-2.606c-.6,0-1.19.019-1.755.058a93.84,93.84,0,0,0-13.468,1.781c-2,.49-2.191.84-2.193.843a8.738,8.738,0,0,1-2.005.5c-.584,0-.736-1.008-.752-1.123l.007-.006a37.494,37.494,0,0,1,5.253-1.831,50.46,50.46,0,0,1,13.319-1.836,43.4,43.4,0,0,1,17.612,3.636A48.715,48.715,0,0,1,192.1,209.251c.1.116.1.122.1.125Zm124.137-1.544h0a66.835,66.835,0,0,0-12.223-9.169,68.451,68.451,0,0,0-13.726-6.305,55.888,55.888,0,0,0-17.42-2.867c-12.547,0-24.706,4.546-36.139,13.511a13.312,13.312,0,0,0-1.334,2l-.006.005a9.6,9.6,0,0,1-2.769,1.479.2.2,0,0,1-.2-.093c-.1-.187.117-.654.633-1.389,1.075-1.534,5.439-6,12.064-10.025a56.591,56.591,0,0,1,12.272-5.6,52.156,52.156,0,0,1,15.778-2.456,56.866,56.866,0,0,1,20.354,3.914,63.338,63.338,0,0,1,11.936,5.75,36.477,36.477,0,0,1,6.878,5.5,16.391,16.391,0,0,1,3.9,5.746Zm267.481-8.975,0,0a7.689,7.689,0,0,1-.911-2.962,28.017,28.017,0,0,1,.913-10.463,38.264,38.264,0,0,1,6.016-10.327c1.7-1.937,3.016-2.624,3.624-2.624a.328.328,0,0,1,.307.13.4.4,0,0,1-.066.392,33.07,33.07,0,0,0-5.652,8.44,43.513,43.513,0,0,0-2.939,8.4,44.066,44.066,0,0,0-1.289,9.014Zm108.538-13.308a6.406,6.406,0,0,1-1.727-.263,9.557,9.557,0,0,1-5.243-4.18A13.469,13.469,0,0,1,683.9,178l.006,0a19.692,19.692,0,0,0,2.784,2.287,11.987,11.987,0,0,0,6.359,2.294,6.819,6.819,0,0,0,2.447-.445.2.2,0,0,1,.07-.013.185.185,0,0,1,.162.1,1.977,1.977,0,0,1-.277,1.6A3.323,3.323,0,0,1,692.351,185.549ZM546.266,183.5h0v-.008c-.019-.26-.129-1.663-.445-3.719.81,2.794.463,3.69.448,3.727Zm153.523-3.014a1.389,1.389,0,0,1-.717-.2l0-.005c.379-.458,3.694-4.526,3.288-6.281a1.107,1.107,0,0,1,0-.765.091.091,0,0,1,.075-.039c.053,0,.115.046.173.13.341.48.557,2.008-.244,4.246C701.5,179.978,700.489,180.483,699.79,180.483Zm-46.8-4.527c-.452,0-.6-.521-.6-.526a28.09,28.09,0,0,1,4.135-5.436,20.377,20.377,0,0,1,4.865-3.738,13.551,13.551,0,0,1,6.457-1.7A16.193,16.193,0,0,1,677.309,168c.352.656.46,1.054.341,1.252a.384.384,0,0,1-.362.149,14.888,14.888,0,0,1-3.845-1.4,15.744,15.744,0,0,0-6.38-1.616c-4.5,0-8.711,2.8-12.52,8.33C653.925,175.539,653.4,175.956,652.993,175.956Zm-25.628-1.709a8.738,8.738,0,0,1-1.832-1.118l-.022-.015-.02-.014-.005,0c-1.008-.686-2.532-1.724-4.282-2.753-4.4-2.59-8.19-3.9-11.278-3.9a9.819,9.819,0,0,0-1.631.131,35.143,35.143,0,0,0-9.529,2.7l-.007,0a3.228,3.228,0,0,1-1.009.361.319.319,0,0,1-.193-.059.605.605,0,0,1-.244-.419,1.515,1.515,0,0,1,.244-.867,17.9,17.9,0,0,1,3.228-1.746,21.556,21.556,0,0,1,8.365-1.746,20.635,20.635,0,0,1,8.614,1.913A29.826,29.826,0,0,1,627.339,174c.068.117.092.191.072.226A.049.049,0,0,1,627.366,174.247Z" transform="translate(-2420 1026)" fill="#fff" opacity="0.09"/></g></svg>