<?xml version="1.0" encoding="utf-8"?>
<!-- Generator: Adobe Illustrator 23.0.3, SVG Export Plug-In . SVG Version: 6.00 Build 0)  -->
<svg version="1.1" xmlns="http://www.w3.org/2000/svg" xmlns:xlink="http://www.w3.org/1999/xlink" x="0px" y="0px"
	 viewBox="0 0 1316 393.8" style="enable-background:new 0 0 1316 393.8;" xml:space="preserve">
<style type="text/css">
	.st0{fill:#140505;}
	.st1{fill:url(#SVGID_1_);}
	.st2{opacity:9.000000e-02;fill:#FFFFFF;enable-background:new    ;}
	.st3{fill:url(#SVGID_2_);}
	.st4{fill:#2A1C1C;enable-background:new    ;}
	.st5{fill:#291C1C;}
</style>
<g id="Layer_1">
	<rect x="1313.8" y="-1.8" class="st0" width="2.2" height="273.6"/>
	<g transform="translate(2316 -1016.5)">
		
			<radialGradient id="SVGID_1_" cx="-2054.1658" cy="1519.6953" r="0.717" gradientTransform="matrix(393.484 0 0 -311.4991 806294.375 474580.75)" gradientUnits="userSpaceOnUse">
			<stop  offset="0" style="stop-color:#260D0D"/>
			<stop  offset="1" style="stop-color:#140505"/>
		</radialGradient>
		<path class="st1" d="M-2202.9,1410.3L-2202.9,1410.3c-1.5,0-3.1-0.1-4.6-0.3c-9.4-1.2-15.9-4.4-20-9.9c-4-5.3-5.7-12.8-5.3-23.5
			c0.3-9.7,2.2-21.1,4.3-33.3l0,0v0v0c1.6-9.7,3.3-19.8,4.5-30.3c5.3-48.3-8.2-64.1-20.5-72.5c-2.8-1.7-5.8-3-8.9-3.8
			c-3.9-1-8-1.5-12-1.5c-7.7,0-26,2.2-28.5,22.3c-1.8,12.4-4.6,21.4-8.4,26.8c-1.2,1.9-2.9,3.5-4.9,4.7c-1.3,0.8-2.8,1.2-4.4,1.2
			c-1.5,0-3-0.4-4.4-1.2v-272.5h658V1289c-0.9-0.2-1.8-0.5-2.6-0.9c-1.6-2.3-2.9-4.7-4-7.3c-1.4-3.4-2.3-6.9-2.8-10.5
			c-0.5-3.6-0.6-7.2-0.1-10.8c0.5-6.8,0.7-13.7,0.5-20.6c-0.2-5.9-0.7-11.8-1.8-17.6c-1.2-6.4-3-11.6-5.2-15.3
			c-5.5-9.1-13.6-14.9-20.7-14.9c-6.8,0-12.1,5.3-14.8,14.9c-1.8,6.4-4.5,11.2-8,14.5c-2.6,2.6-6.1,4.1-9.9,4.2
			c-4,0.1-7.8-2.1-9.6-5.7c-1.7-3.5-4.1-6.5-7-9.1c-1.4-1.3-3.1-2.5-4.8-3.3c-1.5-0.8-3.3-1.3-5-1.3c-3.2,0-5.8,1.8-7.7,5.3
			c-4.7,6.7-10.4,10.1-17.1,10.1c-4-0.1-8-1.1-11.6-2.9c-3.9-1.9-7.5-4.3-10.8-7.1c-2.3-2-5.2-3.2-8.3-3.2c-4.7,0-9.5,2.8-13.7,7.8
			c-2,2.5-3.7,5.3-5.1,8.2c-1.4,3.1-2.4,6.4-3,9.8c-0.6,3.8-1.4,7.6-2.5,11.4c-0.8,2.9-2,5.7-3.5,8.3c-1.4,2.3-3.2,4.3-5.4,5.8
			c-2.5,1.7-5.2,3.1-8.1,4c-1,0.4-2.1,0.5-3.2,0.5c-2.9,0-5.9-1.2-9-3.6c-3.1-2.5-5.8-5.4-8-8.6c-2.3-3.3-4.3-6.8-5.8-10.5
			c-1.3-2.9-2.1-6.1-2.4-9.3l0-0.2c-0.2-5.4-0.5-11.4-2.4-17.2c-2.1-6.6-6.4-12.2-12.1-16.1c-1.1-0.8-2.5-1.3-3.9-1.3
			c-12.8,0-27.8,38.2-30.1,61.3c-0.6,6.4-1.6,12.8-3,19.2c-1.3,6.1-3.1,12.1-5.4,17.9c-2,5.2-4.7,10.1-7.9,14.6
			c-2.8,3.9-6.4,7.1-10.6,9.3c-2.3,1.2-4.9,1.9-7.6,2c-5.5,0-10.3-3.3-14.4-9.9c-3.6-5.7-6.5-13.9-8.5-23.6
			c-0.7-3.5-1.3-6.8-1.8-9.4c-1.4-7.9-2.5-14.1-5.4-20c-3.1-6.2-8.1-11.6-16.3-17.6c-4.9-3.6-9.8-5.4-14.6-5.4
			c-6.5,0-12.9,3.3-18.5,9.6c-2.7,3.1-5,6.5-6.9,10.2c-2,3.9-3.7,7.9-5,12.1c-2.2,6.1-4.8,10.4-8.2,13c-2.9,2.3-6.5,3.4-10.2,3.3
			c-3.2-0.1-6.5-0.6-9.6-1.4c-6.1-1.4-7.9-5-11.1-11.7c-3.6-7.8-8.1-15.1-13.4-21.8c-4.2-5.2-9.7-9.1-15.9-11.4
			c-6.3-2.3-12.9-3.5-19.6-3.4c-12.8,0-25.2,3.9-31.4,9.9c-4.5,4.6-7.9,11.9-10,21.6c-2,9.6-2.9,19.4-2.8,29.2
			c-0.1,20.1,2.6,39.6,4.4,47.1c2.2,9.5,3.5,19.1,3.8,28.9c0.2,6-0.2,11.9-1.3,17.8c-1.2,6.1-3.3,11-6.2,14.7
			c-1.9,2.5-4.4,4.5-7.3,5.8C-2195.7,1409.6-2199.3,1410.4-2202.9,1410.3z"/>
		<path class="st2" d="M-2208,1397.1c-1.9,0-3.8-0.5-5.5-1.4c-2.3-1.1-4.4-2.7-6.1-4.6c-2.3-2.6-4-5.5-5.3-8.7
			c-1.7-4.4-2.7-9-3.1-13.7c-0.1-10.1,0.6-12,0.9-12.3c0,0,0.1-0.1,0.1-0.1h0c0.7,5.3,2.1,10.4,4,15.3c1.7,4.4,4,8.5,6.9,12.2
			c3.1,4,7.1,7.1,11.8,9.1c0.5,0.7,0.7,1.6,0.3,2.4C-2204.5,1396.4-2206,1397.1-2208,1397.1z M-2189,1374.9c-1.9,0-3.4-3.5-3.4-3.6
			c-0.4-2.3-0.1-4.6,1-6.7c0.3-0.7,1-1.1,1.7-1.1c1,0.1,2,0.7,2.6,1.6c0.6,0.8,1.1,1.7,1.3,2.7c0.3,1.1,0.3,2.3,0,3.5
			C-2186.8,1373.7-2187.8,1374.9-2189,1374.9L-2189,1374.9z M-2225.4,1346.1C-2225.4,1346.1-2225.4,1346-2225.4,1346.1
			c-0.6-0.9-0.1-12.6-0.1-12.7c0,0,0.6-1.8,1.1-1.8c0.3,0,0.5,0.6,0.6,1.8C-2223.5,1336.9-2224.7,1345.4-2225.4,1346.1
			C-2225.3,1346-2225.3,1346-2225.4,1346.1L-2225.4,1346.1z M-2223.3,1323.7c-0.4-0.1-0.8-0.3-1.1-0.7v0c0.1-0.7,1.2-7,2-7.3
			c0,0,0,0,0.1,0c0.1,0,0.1,0.1,0.2,0.2c0.3,1.1,0.5,2.3,0.4,3.5c0,1.3-0.2,2.5-0.6,3.7C-2222.6,1323.4-2222.9,1323.6-2223.3,1323.7
			L-2223.3,1323.7z M-1963.1,1305.8c-3.1,0-6-1.4-8.6-4.2c-2.4-2.8-4.3-5.9-5.6-9.3c-1.8-4.4-3.1-8.9-4-13.5c0-0.1,0.1-0.4,0.3-0.4
			c0.2,0,0.4,0.2,0.6,0.4c0.5,0.6,0.5,0.7,0.5,0.8c0,0,0,0,0,0c0,0-0.1,0-0.1,0c1.1,4.2,2.5,8.2,4.3,12.2c1.3,3,3,5.8,5.1,8.4
			c2.2,2.5,4.5,3.8,6.8,3.8c0.1,0,0.3,0,0.5,0c10.7-0.8,16.2-8.5,23.6-24.3c0.5-0.6,0.8-0.9,1-0.9c0,0,0.1,0,0.1,0
			c0.2,0.2-0.2,1.5-1,3.9c-1.7,4.7-4.1,9.2-7.1,13.3c-1.9,2.6-4.2,5-6.9,6.8c-2.7,1.9-5.9,3-9.2,3.1
			C-1962.9,1305.8-1963,1305.8-1963.1,1305.8L-1963.1,1305.8z M-2220.2,1291.7c-0.9,0-1.4-23-1.4-23.2c0-0.1,0.3-1.9,0.8-1.9
			c0.2,0,0.5,0.4,0.7,1.1C-2219.1,1270.5-2219.1,1290-2220.2,1291.7C-2220.1,1291.7-2220.2,1291.7-2220.2,1291.7z M-2199.8,1281
			c-0.1,0-0.2-0.2-0.3-0.7c-0.4-2.1,0-18.4,0.8-25.8c0.5-3.5,1.6-6.9,3.2-10c1.4-2.8,2.8-4.8,3.2-4.8c0,0,0,0,0.1,0
			c0,0.1,0,0.1,0,0.2c-1.5,3.7-2.7,7.5-3.4,11.5c-0.8,3.8-1.4,8.1-2,12.9c-0.9,8-1.1,14.8-1.1,14.9S-2199.5,1281-2199.8,1281
			L-2199.8,1281z M-2312.4,1274.7c-1.3,0-2.4-0.8-3.5-2.3c0,0,0,0,0-0.1v-7.4c0-0.2,0-0.4,0-0.4v0v0c0,0,0,0,0,0l0,0
			c0.6,0.9,1.3,1.8,2.1,2.7c1.1,1.2,2.8,2.7,4.3,2.7c0.1,0,0.1,0,0.3,0c0,0,0.1,0,0.1,0c0.3,0,0.5,0.1,0.6,0.3
			c0.2,0.7,0.1,1.6-0.4,2.2C-2309.5,1273.6-2310.9,1274.5-2312.4,1274.7z M-1658,1266.9L-1658,1266.9c-1.6-4.7-2.5-9.6-2.6-14.5
			c0-0.1,0-0.1,0-0.1c0.3,0.7,0.5,1.5,0.7,2.3v0l0,0c0.5,1.8,1.2,4.3,1.9,6L-1658,1266.9L-1658,1266.9z M-2071.9,1265.3
			L-2071.9,1265.3c-1.8,0-3.6-0.6-5.1-1.7c-1.5-1-2.8-2.3-4-3.7c-1.4-1.7-2.6-3.5-3.6-5.4c0-0.1,0.1-0.2,0.3-0.2
			c0.3,0,0.8,0.4,2,2.2c3.5,4.6,6.9,7,10.4,7c4.7,0,7.6-4.6,7.8-4.8c0.3-0.5,0.8-0.9,1.4-1c0.2,0,0.4,0.1,0.5,0.3
			c0.1,0.3,0,0.7-0.3,1.2C-2065.6,1263.2-2068.7,1265.3-2071.9,1265.3L-2071.9,1265.3z M-1982.7,1262.6c-0.2,0-0.4-0.1-0.6-0.2
			c0-0.1-1.8-5.9-1.4-6.5c0,0,0.1-0.1,0.1-0.1c0,0,0,0,0.1,0c0.7,0.3,2.2,4,2.4,5.8c0,0.4,0,0.7-0.1,0.7
			C-1982.3,1262.5-1982.5,1262.6-1982.7,1262.6L-1982.7,1262.6z M-1985.8,1251.4c-0.3,0-0.5-0.1-0.7-0.2v0c0-1.2-0.2-2.4-0.6-3.6
			c-0.7-2.5-2.1-4.7-4.1-6.4c-0.1-0.3-0.2-0.5-0.1-0.6c0.1-0.1,0.2-0.2,0.4-0.2c1.1,0,3.8,1.9,5.3,6.2c0.8,2.3,0.9,3.7,0.5,4.4
			C-1985.3,1251.3-1985.6,1251.5-1985.8,1251.4L-1985.8,1251.4z M-1855.7,1248.9c-2.2,0-4.3-0.9-6-2.4c-1.8-1.6-3.3-3.5-4.3-5.6
			c-0.9-1.9-1.7-3.8-2.1-5.9c-0.5-2.1-0.8-4.3-0.7-6.5c0,0,0,0,0,0c1.1,2.6,2.6,5,4.4,7.2c1.6,2,3.5,3.7,5.7,5.2
			c2.4,1.6,5.2,2.5,8.1,2.8c1.1,0.1,1.7,0.5,1.7,1.2C-1849,1246.5-1852,1248.9-1855.7,1248.9z M-2302,1248.2L-2302,1248.2
			c-0.6,0-0.7-0.8-0.7-0.9c0-0.1,0.8-6.5,1.8-6.5h0c0.4,0.1,0.4,1,0.4,1.7C-2300.6,1244.7-2301.5,1248.2-2302,1248.2L-2302,1248.2z
			 M-1934.4,1247L-1934.4,1247c-0.1-1.6-0.1-3.2,0-4.8c0.3-4.6,1-9.2,2-13.7c2-6.6,4.4-14.3,6.9-20.9c2-5.5,4.4-10.9,7.4-15.9
			c2.3-4,5.4-7.5,9.2-10.1c3.6-2.4,7.9-3.6,12.3-3.5c0.4,0,0.7,0,1.1,0c6.7,0.3,12.1,4,16,11c2.7,5.2,4.5,10.9,5.3,16.7
			c-0.9-3-3.2-8.6-9.3-18.8c-5.2-4.7-10.3-7.1-15-7.1c-5.8,0-11.3,3.5-16.4,10.5c-4,5.6-7.8,13.3-11.1,23.1
			C-1929.7,1224.4-1932.5,1235.6-1934.4,1247L-1934.4,1247z M-2056.8,1243.6C-2056.8,1243.6-2056.9,1243.5-2056.8,1243.6
			c2.6-5.4,5.8-10.4,9.6-14.9c3.2-3.9,6.9-7.4,11.1-10.2c4.2-2.9,9.2-4.5,14.3-4.7c4.2,0.1,8.2,1.2,11.8,3.2
			c4.9,2.9,9.3,6.6,12.9,11.1c1,1.8,1.5,3,1.4,3.3c0,0-0.1,0-0.1,0c-0.3,0-1.4-1.2-3-3.3c-2-2.6-4.4-4.8-7.2-6.5
			c-2-1.3-4.1-2.3-6.3-3.1c-2.5-0.9-5.2-1.3-7.9-1.3c-10,0-20.3,6-30.5,17.9C-2055.3,1242.7-2056.5,1243.6-2056.8,1243.6z
			 M-1842.4,1241.6c-1.5,0-1.9-2.8-1.9-2.9c0,0,1.1-4.4,3.7-5.3c0.2-0.1,0.4-0.1,0.7-0.1c0.6,0,1.1,0.4,1.2,0.9
			c0.6,1.4,0.1,4.3-1.9,6.4C-1841.1,1241.1-1841.7,1241.5-1842.4,1241.6L-1842.4,1241.6z M-2299.4,1236.9
			C-2299.4,1236.9-2299.5,1236.9-2299.4,1236.9c-0.1-0.1,0-0.4,0.1-0.8c0.8-2.2,2-4.2,3.4-6.1c1.2-1.5,2.5-2.9,4-4.2
			c1.4-1.3,3-2.3,4.7-3.2c0.1,0,0.3,0,0.4-0.1c0.2,0,0.3,0,0.3,0.1c0.1,0.1,0,0.3-0.3,0.6c-3,1.9-6.9,6.9-9.6,10.2l0,0l0,0l0,0v0
			C-2298,1235.5-2299.1,1236.9-2299.4,1236.9L-2299.4,1236.9z M-1662.6,1236.5c-0.2,0-0.5-1.2-0.5-1.2c0.2-7.4-0.3-14.7-1.4-22
			c-0.9-6.2-2.6-12.3-5-18.1c-2.8-6.4-6.4-11.3-10.7-14.5c-4.8-3-9.5-4.6-13.8-4.6c-2.9,0-5.7,0.7-8.2,2c-2.2,1.1-4.1,2.6-5.8,4.4
			c-1.8,1.9-3.4,4.1-4.6,6.4c-0.3,0.2-0.6,0.3-1,0.4c-0.1,0-0.3-0.1-0.3-0.2c-0.3-0.5,0.4-1.9,2-4.3c3.4-5.2,7.9-10.8,17.7-10.8
			c2.3,0,4.6,0.3,6.9,0.8c9.7,2.6,16.7,9.9,20.9,21.7c3.5,10,4.3,21.4,4.3,29.1C-1661.9,1234.6-1662.3,1236.5-1662.6,1236.5
			L-1662.6,1236.5z M-2227.8,1235.4L-2227.8,1235.4c-0.1-0.1-0.3-0.2-0.4-0.3l0,0l0,0l0,0c-3.2-2.9-6.7-5.6-10.3-7.9
			c-3.5-2.3-7.1-4.2-11-5.7c-4-1.6-8.4-2.5-12.7-2.6c-0.6,0-1.2,0-1.8,0.1c-4.5,0.3-9,0.9-13.5,1.8c-2,0.5-2.2,0.8-2.2,0.8
			c-0.6,0.2-1.3,0.4-2,0.5c-0.6,0-0.7-1-0.8-1.1l0,0c1.7-0.7,3.5-1.4,5.3-1.8c4.3-1.2,8.8-1.8,13.3-1.8c6.1,0,12.1,1.2,17.6,3.6
			c7.2,3.3,13.5,8.3,18.3,14.5C-2227.8,1235.4-2227.8,1235.4-2227.8,1235.4L-2227.8,1235.4z M-2103.7,1233.8L-2103.7,1233.8
			c-3.7-3.5-7.8-6.6-12.2-9.2c-4.3-2.6-8.9-4.7-13.7-6.3c-5.6-1.9-11.5-2.8-17.4-2.9c-12.5,0-24.7,4.5-36.1,13.5
			c-0.5,0.6-1,1.3-1.3,2l0,0c-0.8,0.6-1.8,1.1-2.8,1.5c-0.1,0-0.2,0-0.2-0.1c-0.1-0.2,0.1-0.7,0.6-1.4c1.1-1.5,5.4-6,12.1-10
			c3.9-2.3,8-4.2,12.3-5.6c5.1-1.6,10.4-2.5,15.8-2.5c7,0,13.9,1.4,20.4,3.9c4.2,1.5,8.2,3.4,11.9,5.8c2.5,1.5,4.8,3.4,6.9,5.5
			C-2105.9,1229.7-2104.6,1231.7-2103.7,1233.8L-2103.7,1233.8z M-1836.2,1224.9L-1836.2,1224.9c-0.5-0.9-0.8-1.9-0.9-3
			c-0.4-3.5,0-7.1,0.9-10.5c1.5-3.7,3.5-7.2,6-10.3c1.7-1.9,3-2.6,3.6-2.6c0.1,0,0.2,0,0.3,0.1c0,0.1,0,0.3-0.1,0.4
			c-2.3,2.5-4.2,5.4-5.7,8.4c-1.3,2.7-2.2,5.5-2.9,8.4C-1835.6,1218.8-1836.1,1221.8-1836.2,1224.9L-1836.2,1224.9z M-1727.7,1211.5
			c-0.6,0-1.2-0.1-1.7-0.3c-2.2-0.7-4.1-2.2-5.2-4.2c-0.6-1-1.1-2-1.5-3.1h0c0.9,0.8,1.8,1.6,2.8,2.3c1.9,1.4,4.1,2.2,6.4,2.3
			c0.8,0,1.7-0.1,2.4-0.4c0,0,0,0,0.1,0c0.1,0,0.1,0,0.2,0.1c0.1,0.5,0,1.1-0.3,1.6C-1725.2,1210.9-1726.4,1211.6-1727.7,1211.5
			L-1727.7,1211.5z M-1873.7,1209.5L-1873.7,1209.5L-1873.7,1209.5c0-0.3-0.1-1.7-0.4-3.7
			C-1873.4,1208.6-1873.7,1209.5-1873.7,1209.5L-1873.7,1209.5z M-1720.2,1206.5c-0.3,0-0.5-0.1-0.7-0.2v0c0.4-0.5,3.7-4.5,3.3-6.3
			c-0.1-0.2-0.1-0.5,0-0.8c0,0,0,0,0.1,0c0.1,0,0.1,0,0.2,0.1c0.3,0.5,0.6,2-0.2,4.2C-1718.5,1206-1719.5,1206.5-1720.2,1206.5
			L-1720.2,1206.5z M-1767,1202c-0.5,0-0.6-0.5-0.6-0.5c1.2-2,2.5-3.8,4.1-5.4c1.4-1.5,3.1-2.7,4.9-3.7c2-1.1,4.2-1.7,6.5-1.7
			c3.4,0.1,6.8,1.3,9.5,3.4c0.4,0.7,0.5,1.1,0.3,1.3c-0.1,0.1-0.2,0.2-0.4,0.1c-1.3-0.3-2.6-0.8-3.8-1.4c-2-1-4.2-1.5-6.4-1.6
			c-4.5,0-8.7,2.8-12.5,8.3C-1766.1,1201.5-1766.6,1202-1767,1202L-1767,1202z M-1792.6,1200.3c-0.7-0.3-1.3-0.7-1.8-1.1l0,0l0,0h0
			c-1-0.7-2.5-1.7-4.3-2.8c-4.4-2.6-8.2-3.9-11.3-3.9c-0.5,0-1.1,0-1.6,0.1c-3.3,0.4-6.5,1.4-9.5,2.7h0c-0.3,0.2-0.7,0.3-1,0.4
			c-0.1,0-0.1,0-0.2-0.1c-0.1-0.1-0.2-0.3-0.2-0.4c0-0.3,0.1-0.6,0.2-0.9c1-0.7,2.1-1.3,3.2-1.7c2.6-1.1,5.5-1.7,8.4-1.7
			c3,0,5.9,0.7,8.6,1.9c3.7,1.8,6.9,4.2,9.6,7.3C-1792.6,1200.1-1792.6,1200.2-1792.6,1200.3
			C-1792.6,1200.2-1792.6,1200.2-1792.6,1200.3L-1792.6,1200.3z"/>
	</g>
	<g transform="translate(2316 -1016.5)">
		
			<radialGradient id="SVGID_2_" cx="-2052.4958" cy="1519.6975" r="0.717" gradientTransform="matrix(393.484 0 0 -311.4991 806294.375 474580.75)" gradientUnits="userSpaceOnUse">
			<stop  offset="0" style="stop-color:#260D0D"/>
			<stop  offset="1" style="stop-color:#140505"/>
		</radialGradient>
		<path class="st3" d="M-1545.7,1409.6L-1545.7,1409.6c-1.5,0-3.1-0.1-4.6-0.3c-9.4-1.2-15.9-4.4-20-9.9c-4-5.3-5.7-12.8-5.3-23.5
			c0.3-9.7,2.2-21.1,4.3-33.3l0,0v0v0c1.6-9.7,3.3-19.8,4.5-30.3c5.3-48.3-8.2-64.1-20.5-72.5c-2.8-1.7-5.8-3-8.9-3.8
			c-3.9-1-8-1.5-12-1.5c-7.7,0-26,2.2-28.5,22.3c-1.8,12.4-4.6,21.4-8.4,26.8c-1.2,1.9-2.9,3.5-4.9,4.7c-1.3,0.8-2.8,1.2-4.4,1.2
			c-1.5,0-3-0.4-4.4-1.2v-272.5h658v272.5c-0.9-0.2-1.8-0.5-2.6-0.9c-1.6-2.3-2.9-4.7-4-7.3c-1.4-3.4-2.3-6.9-2.8-10.5
			c-0.5-3.6-0.6-7.2-0.1-10.8c0.5-6.8,0.7-13.7,0.5-20.6c-0.2-5.9-0.7-11.8-1.8-17.6c-1.2-6.4-3-11.6-5.2-15.3
			c-5.5-9.1-13.6-14.9-20.7-14.9c-6.8,0-12.1,5.3-14.8,14.9c-1.8,6.4-4.5,11.2-8,14.5c-2.6,2.6-6.1,4.1-9.9,4.2
			c-4,0.1-7.8-2.1-9.6-5.7c-1.7-3.5-4.1-6.5-7-9.1c-1.4-1.3-3.1-2.5-4.8-3.3c-1.5-0.8-3.3-1.3-5-1.3c-3.2,0-5.8,1.8-7.7,5.3
			c-4.7,6.7-10.4,10.1-17.1,10.1c-4-0.1-8-1.1-11.6-2.9c-3.9-1.9-7.5-4.3-10.8-7.1c-2.3-2-5.2-3.2-8.3-3.2c-4.7,0-9.5,2.8-13.7,7.8
			c-2,2.5-3.7,5.3-5.1,8.2c-1.4,3.1-2.4,6.4-3,9.8c-0.6,3.8-1.4,7.6-2.5,11.4c-0.8,2.9-2,5.7-3.5,8.3c-1.4,2.3-3.2,4.3-5.4,5.8
			c-2.5,1.7-5.2,3.1-8.1,4c-1,0.4-2.1,0.5-3.2,0.5c-2.9,0-5.9-1.2-9-3.6c-3.1-2.5-5.8-5.4-8-8.6c-2.3-3.3-4.3-6.8-5.8-10.5
			c-1.3-2.9-2.1-6.1-2.4-9.3l0-0.2c-0.2-5.4-0.5-11.4-2.4-17.2c-2.1-6.6-6.4-12.2-12.1-16.1c-1.1-0.8-2.5-1.3-3.9-1.3
			c-12.8,0-27.8,38.2-30.1,61.3c-0.6,6.4-1.6,12.8-3,19.2c-1.3,6.1-3.1,12.1-5.4,17.9c-2,5.2-4.7,10.1-7.9,14.6
			c-2.8,3.9-6.4,7.1-10.6,9.3c-2.3,1.2-4.9,1.9-7.6,2c-5.5,0-10.3-3.3-14.4-9.9c-3.6-5.7-6.5-13.9-8.5-23.6
			c-0.7-3.5-1.3-6.8-1.8-9.4c-1.4-7.9-2.5-14.1-5.4-20c-3.1-6.2-8.1-11.6-16.3-17.6c-4.9-3.6-9.8-5.4-14.6-5.4
			c-6.5,0-12.9,3.3-18.5,9.6c-2.7,3.1-5,6.5-6.9,10.2c-2,3.9-3.7,7.9-5,12.1c-2.2,6.1-4.8,10.4-8.2,13c-2.9,2.3-6.5,3.4-10.2,3.3
			c-3.2-0.1-6.5-0.6-9.6-1.4c-6.1-1.4-7.9-5-11.1-11.7c-3.6-7.8-8.1-15.1-13.4-21.8c-4.2-5.2-9.7-9.1-15.9-11.4
			c-6.3-2.3-12.9-3.5-19.6-3.4c-12.8,0-25.2,3.9-31.4,9.9c-4.5,4.6-7.9,11.9-10,21.6c-2,9.6-2.9,19.4-2.8,29.2
			c-0.1,20.1,2.6,39.6,4.4,47.1c2.2,9.5,3.5,19.1,3.8,28.9c0.2,6-0.2,11.9-1.3,17.8c-1.2,6.1-3.3,11-6.2,14.7
			c-1.9,2.5-4.4,4.5-7.3,5.8C-1538.5,1409-1542.1,1409.7-1545.7,1409.6z"/>
		<path class="st2" d="M-1550.9,1396.4c-1.9,0-3.8-0.5-5.5-1.4c-2.3-1.1-4.4-2.7-6.1-4.6c-2.3-2.6-4-5.5-5.3-8.7
			c-1.7-4.4-2.7-9-3.1-13.7c-0.1-10.1,0.6-12,0.9-12.3c0,0,0.1-0.1,0.1-0.1h0c0.7,5.3,2.1,10.4,4,15.3c1.7,4.4,4,8.5,6.9,12.2
			c3.1,4,7.1,7.1,11.8,9.1c0.5,0.7,0.7,1.6,0.3,2.4C-1547.4,1395.8-1548.9,1396.4-1550.9,1396.4z M-1531.8,1374.2
			c-1.9,0-3.4-3.5-3.4-3.6c-0.4-2.3-0.1-4.6,1-6.7c0.3-0.7,1-1.1,1.7-1.1c1,0.1,2,0.7,2.6,1.6c0.6,0.8,1.1,1.7,1.3,2.7
			c0.3,1.1,0.3,2.3,0,3.5C-1529.6,1373-1530.7,1374.2-1531.8,1374.2L-1531.8,1374.2z M-1568.2,1345.4
			C-1568.2,1345.4-1568.3,1345.4-1568.2,1345.4c-0.6-0.9-0.1-12.6-0.1-12.7c0,0,0.6-1.8,1.1-1.8c0.3,0,0.5,0.6,0.6,1.8
			C-1566.3,1336.3-1567.5,1344.7-1568.2,1345.4C-1568.2,1345.4-1568.2,1345.4-1568.2,1345.4L-1568.2,1345.4z M-1566.2,1323
			c-0.4-0.1-0.8-0.3-1.1-0.7v0c0.1-0.7,1.2-7,2-7.3c0,0,0,0,0.1,0c0.1,0,0.1,0.1,0.2,0.2c0.3,1.1,0.5,2.3,0.4,3.5
			c0,1.3-0.2,2.5-0.6,3.7C-1565.4,1322.7-1565.8,1322.9-1566.2,1323L-1566.2,1323z M-1305.9,1305.1c-3.1,0-6-1.4-8.6-4.2
			c-2.4-2.8-4.3-5.9-5.6-9.3c-1.8-4.4-3.1-8.9-4-13.5c0-0.1,0.1-0.4,0.3-0.4c0.2,0,0.4,0.1,0.6,0.4c0.5,0.6,0.5,0.7,0.5,0.8
			c0,0,0,0,0,0c0,0-0.1,0-0.1,0c1.1,4.2,2.5,8.2,4.3,12.2c1.3,3,3,5.8,5.1,8.4c2.2,2.5,4.5,3.8,6.8,3.8c0.1,0,0.3,0,0.5,0
			c10.7-0.8,16.2-8.5,23.6-24.3c0.5-0.6,0.8-0.9,1-0.9c0,0,0.1,0,0.1,0c0.2,0.2-0.2,1.5-1,3.9c-1.7,4.7-4.1,9.2-7.1,13.3
			c-1.9,2.6-4.2,5-6.9,6.8c-2.7,1.9-5.9,3-9.2,3.1C-1305.7,1305.1-1305.8,1305.1-1305.9,1305.1L-1305.9,1305.1z M-1563,1291.1
			c-0.9,0-1.4-23-1.4-23.2c0-0.1,0.3-1.9,0.8-1.9c0.2,0,0.5,0.4,0.7,1.1C-1561.9,1269.8-1561.9,1289.3-1563,1291.1
			C-1563,1291-1563,1291.1-1563,1291.1z M-1542.6,1280.4c-0.1,0-0.2-0.2-0.3-0.7c-0.4-2.1,0-18.4,0.8-25.8c0.5-3.5,1.6-6.9,3.2-10
			c1.4-2.8,2.8-4.8,3.2-4.8c0,0,0,0,0.1,0c0,0.1,0,0.1,0,0.2c-1.5,3.7-2.7,7.5-3.4,11.5c-0.8,3.8-1.4,8.1-2,12.9
			c-0.9,8-1.1,14.8-1.1,14.9C-1542.1,1278.5-1542.3,1280.4-1542.6,1280.4L-1542.6,1280.4z M-1655.3,1274c-1.3,0-2.4-0.8-3.5-2.3
			c0,0,0,0,0-0.1v-7.4c0-0.2,0-0.4,0-0.4v0v0c0,0,0,0,0,0l0,0c0.6,0.9,1.3,1.8,2.1,2.7c1.1,1.2,2.8,2.7,4.3,2.7c0.1,0,0.1,0,0.3,0
			c0,0,0.1,0,0.1,0c0.3,0,0.5,0.1,0.6,0.3c0.2,0.7,0.1,1.6-0.4,2.2C-1652.4,1272.9-1653.7,1273.8-1655.3,1274z M-1000.8,1266.2
			L-1000.8,1266.2c-1.6-4.7-2.5-9.6-2.6-14.5c0-0.1,0-0.1,0-0.1c0.3,0.7,0.5,1.5,0.7,2.3v0l0,0c0.5,1.8,1.2,4.3,1.9,6
			L-1000.8,1266.2L-1000.8,1266.2z M-1414.8,1264.6L-1414.8,1264.6c-1.8,0-3.6-0.6-5.1-1.7c-1.5-1-2.8-2.3-4-3.7
			c-1.4-1.7-2.6-3.5-3.6-5.4c0-0.1,0.1-0.2,0.3-0.2c0.3,0,0.8,0.4,2,2.2c3.5,4.6,6.9,7,10.4,7c4.7,0,7.6-4.6,7.8-4.8
			c0.3-0.5,0.8-0.9,1.4-1c0.2,0,0.4,0.1,0.5,0.3c0.1,0.3,0.1,0.7-0.3,1.2C-1408.4,1262.5-1411.5,1264.6-1414.8,1264.6
			L-1414.8,1264.6z M-1325.6,1261.9c-0.2,0-0.4-0.1-0.6-0.2c0-0.1-1.8-5.9-1.4-6.5c0,0,0.1-0.1,0.1-0.1c0,0,0,0,0.1,0
			c0.7,0.3,2.2,4,2.4,5.8c0,0.4,0,0.7-0.1,0.7C-1325.2,1261.8-1325.4,1261.9-1325.6,1261.9L-1325.6,1261.9z M-1328.7,1250.8
			c-0.3,0-0.5-0.1-0.7-0.2v0c0-1.2-0.2-2.4-0.6-3.6c-0.7-2.5-2.1-4.7-4.1-6.4c-0.1-0.3-0.2-0.5-0.1-0.6c0.1-0.1,0.2-0.2,0.4-0.2
			c1.1,0,3.8,1.9,5.3,6.2c0.8,2.3,0.9,3.7,0.5,4.4C-1328.1,1250.7-1328.4,1250.8-1328.7,1250.8L-1328.7,1250.8z M-1198.5,1248.3
			c-2.2,0-4.3-0.9-6-2.4c-1.8-1.6-3.3-3.5-4.3-5.6c-0.9-1.9-1.7-3.8-2.1-5.9c-0.5-2.1-0.8-4.3-0.7-6.5c0,0,0,0,0,0
			c1.1,2.6,2.6,5,4.4,7.2c1.6,2,3.5,3.7,5.7,5.2c2.4,1.6,5.2,2.5,8.1,2.8c1.1,0.1,1.7,0.5,1.7,1.2
			C-1191.8,1245.8-1194.9,1248.3-1198.5,1248.3z M-1644.8,1247.5L-1644.8,1247.5c-0.6,0-0.7-0.8-0.7-0.9c0-0.1,0.8-6.5,1.8-6.5h0
			c0.4,0.1,0.4,1,0.4,1.7C-1643.5,1244.1-1644.4,1247.5-1644.8,1247.5L-1644.8,1247.5z M-1277.2,1246.3L-1277.2,1246.3
			c-0.1-1.6-0.1-3.2,0-4.8c0.3-4.6,1-9.2,2-13.7c2-6.6,4.4-14.3,6.9-20.9c2-5.5,4.4-10.9,7.4-15.9c2.3-4,5.4-7.5,9.2-10.1
			c3.6-2.4,7.9-3.6,12.3-3.5c0.4,0,0.7,0,1.1,0c6.7,0.3,12.1,4,16,11c2.7,5.2,4.5,10.9,5.3,16.7c-0.9-3-3.2-8.6-9.3-18.8
			c-5.2-4.7-10.3-7.1-15-7.1c-5.8,0-11.3,3.5-16.4,10.5c-4,5.6-7.8,13.3-11.1,23.1C-1272.5,1223.7-1275.3,1234.9-1277.2,1246.3
			L-1277.2,1246.3z M-1399.6,1242.9C-1399.7,1242.9-1399.7,1242.9-1399.6,1242.9c2.6-5.4,5.8-10.4,9.6-14.9
			c3.2-3.9,6.9-7.4,11.1-10.2c4.2-2.9,9.2-4.5,14.3-4.7c4.2,0.1,8.2,1.2,11.8,3.2c4.9,2.9,9.3,6.6,12.9,11.1c1,1.8,1.5,3,1.4,3.3
			c0,0-0.1,0-0.1,0c-0.3,0-1.4-1.2-3-3.3c-2-2.6-4.4-4.8-7.1-6.5c-2-1.3-4.1-2.3-6.3-3.1c-2.5-0.9-5.2-1.3-7.9-1.3
			c-10,0-20.3,6-30.5,17.9C-1398.1,1242-1399.3,1242.9-1399.6,1242.9z M-1185.3,1240.9c-1.5,0-1.9-2.8-1.9-2.9s1.1-4.4,3.7-5.3
			c0.2-0.1,0.4-0.1,0.7-0.1c0.6,0,1.1,0.4,1.2,0.9c0.6,1.4,0.1,4.3-1.9,6.4C-1183.9,1240.5-1184.5,1240.8-1185.3,1240.9
			L-1185.3,1240.9z M-1642.3,1236.2C-1642.3,1236.3-1642.3,1236.2-1642.3,1236.2c-0.1-0.1,0-0.4,0.1-0.8c0.8-2.2,2-4.2,3.4-6.1
			c1.2-1.5,2.5-2.9,4-4.2c1.4-1.3,3-2.3,4.7-3.2c0.1,0,0.3,0,0.4-0.1c0.2,0,0.3,0,0.3,0.1c0.1,0.1,0,0.3-0.3,0.6
			c-3,2-6.9,6.9-9.6,10.2l0,0l0,0l0,0v0C-1640.8,1234.8-1642,1236.2-1642.3,1236.2L-1642.3,1236.2z M-1005.5,1235.8
			c-0.2,0-0.5-1.2-0.5-1.2c0.2-7.4-0.3-14.7-1.4-22c-0.9-6.2-2.6-12.3-5-18.1c-2.8-6.4-6.4-11.3-10.7-14.5c-4.8-3-9.5-4.6-13.8-4.6
			c-2.9,0-5.7,0.7-8.2,2c-2.2,1.1-4.1,2.6-5.8,4.4c-1.8,1.9-3.4,4.1-4.6,6.4c-0.3,0.2-0.6,0.3-1,0.4c-0.1,0-0.3-0.1-0.3-0.2
			c-0.3-0.5,0.4-1.9,2-4.3c3.4-5.2,7.9-10.8,17.7-10.8c2.3,0,4.6,0.3,6.9,0.8c9.7,2.6,16.7,9.9,20.9,21.7c3.5,10,4.3,21.4,4.3,29.1
			C-1004.8,1233.9-1005.1,1235.8-1005.5,1235.8L-1005.5,1235.8z M-1570.6,1234.7L-1570.6,1234.7c-0.1-0.1-0.3-0.2-0.4-0.3l0,0l0,0
			l0,0c-3.2-2.9-6.7-5.6-10.3-7.9c-3.5-2.3-7.1-4.2-11-5.7c-4-1.6-8.4-2.5-12.7-2.6c-0.6,0-1.2,0-1.8,0.1c-4.5,0.3-9,0.9-13.5,1.8
			c-2,0.5-2.2,0.8-2.2,0.8c-0.6,0.2-1.3,0.4-2,0.5c-0.6,0-0.7-1-0.8-1.1l0,0c1.7-0.7,3.5-1.4,5.3-1.8c4.3-1.2,8.8-1.8,13.3-1.8
			c6.1,0,12.1,1.2,17.6,3.6c7.2,3.3,13.5,8.3,18.3,14.5C-1570.6,1234.7-1570.6,1234.7-1570.6,1234.7L-1570.6,1234.7z
			 M-1446.5,1233.2L-1446.5,1233.2c-3.7-3.5-7.8-6.6-12.2-9.2c-4.3-2.6-8.9-4.7-13.7-6.3c-5.6-1.9-11.5-2.8-17.4-2.9
			c-12.5,0-24.7,4.5-36.1,13.5c-0.5,0.6-1,1.3-1.3,2l0,0c-0.8,0.6-1.8,1.1-2.8,1.5c-0.1,0-0.2,0-0.2-0.1c-0.1-0.2,0.1-0.7,0.6-1.4
			c1.1-1.5,5.4-6,12.1-10c3.9-2.3,8-4.2,12.3-5.6c5.1-1.6,10.4-2.5,15.8-2.5c7,0,13.9,1.4,20.4,3.9c4.2,1.5,8.2,3.4,11.9,5.8
			c2.5,1.5,4.8,3.4,6.9,5.5C-1448.7,1229-1447.4,1231-1446.5,1233.2L-1446.5,1233.2z M-1179,1224.2L-1179,1224.2
			c-0.5-0.9-0.8-1.9-0.9-3c-0.4-3.5,0-7.1,0.9-10.5c1.5-3.7,3.5-7.2,6-10.3c1.7-1.9,3-2.6,3.6-2.6c0.1,0,0.2,0,0.3,0.1
			c0,0.1,0,0.3-0.1,0.4c-2.3,2.5-4.2,5.4-5.7,8.4c-1.3,2.7-2.2,5.5-2.9,8.4C-1178.5,1218.1-1178.9,1221.1-1179,1224.2L-1179,1224.2z
			 M-1070.5,1210.9c-0.6,0-1.2-0.1-1.7-0.3c-2.2-0.7-4.1-2.2-5.2-4.2c-0.6-1-1.1-2-1.5-3.1h0c0.9,0.8,1.8,1.6,2.8,2.3
			c1.9,1.4,4.1,2.2,6.4,2.3c0.8,0,1.7-0.1,2.4-0.4c0,0,0,0,0.1,0c0.1,0,0.1,0,0.2,0.1c0.1,0.5,0,1.1-0.3,1.6
			C-1068,1210.3-1069.2,1210.9-1070.5,1210.9L-1070.5,1210.9z M-1216.6,1208.8L-1216.6,1208.8L-1216.6,1208.8c0-0.3-0.1-1.7-0.4-3.7
			C-1216.2,1207.9-1216.6,1208.8-1216.6,1208.8L-1216.6,1208.8z M-1063,1205.8c-0.3,0-0.5-0.1-0.7-0.2v0c0.4-0.5,3.7-4.5,3.3-6.3
			c-0.1-0.2-0.1-0.5,0-0.8c0,0,0,0,0.1,0c0.1,0,0.1,0,0.2,0.1c0.3,0.5,0.6,2-0.2,4.2C-1061.3,1205.3-1062.3,1205.8-1063,1205.8
			L-1063,1205.8z M-1109.8,1201.3c-0.5,0-0.6-0.5-0.6-0.5c1.2-2,2.5-3.8,4.1-5.4c1.4-1.5,3.1-2.7,4.9-3.7c2-1.1,4.2-1.7,6.5-1.7
			c3.4,0.1,6.8,1.3,9.5,3.4c0.4,0.7,0.5,1.1,0.3,1.3c-0.1,0.1-0.2,0.2-0.4,0.1c-1.3-0.3-2.6-0.8-3.8-1.4c-2-1-4.2-1.5-6.4-1.6
			c-4.5,0-8.7,2.8-12.5,8.3C-1108.9,1200.9-1109.4,1201.3-1109.8,1201.3L-1109.8,1201.3z M-1135.5,1199.6c-0.7-0.3-1.3-0.7-1.8-1.1
			l0,0l0,0h0c-1-0.7-2.5-1.7-4.3-2.8c-4.4-2.6-8.2-3.9-11.3-3.9c-0.5,0-1.1,0-1.6,0.1c-3.3,0.4-6.5,1.4-9.5,2.7h0
			c-0.3,0.2-0.7,0.3-1,0.4c-0.1,0-0.1,0-0.2-0.1c-0.1-0.1-0.2-0.3-0.2-0.4c0-0.3,0.1-0.6,0.2-0.9c1-0.7,2.1-1.3,3.2-1.7
			c2.6-1.1,5.5-1.7,8.4-1.7c3,0,5.9,0.7,8.6,1.9c3.7,1.8,6.9,4.2,9.6,7.3C-1135.4,1199.4-1135.4,1199.5-1135.5,1199.6
			C-1135.4,1199.6-1135.5,1199.6-1135.5,1199.6L-1135.5,1199.6z"/>
	</g>
	<path class="st4" d="M663.9,252.5c0,0-5.9-5-6.7-11.2l-1.8-5.3c0,0-0.4,13.3,1.8,19.2c2.2,5.8,9.7-0.6,7.5-2.3"/>
	<path class="st5" d="M1315.2,243.4c0,0,0.6,1.5,0.8,1.6c0.3,0.2,0.2,5.2,0.2,5.2h-0.2c0,0-0.4-0.1-0.8-0.5V243.4z"/>
</g>
<g id="Layer_2">
	<rect x="655.3" y="-3.6" class="st0" width="2.5" height="237.4"/>
</g>
</svg>
