<svg xmlns="http://www.w3.org/2000/svg" xmlns:xlink="http://www.w3.org/1999/xlink" width="1207.5" height="988.136" viewBox="0 0 1207.5 988.136"><defs><radialGradient id="a" cx="0.5" cy="0.5" r="1.182" gradientTransform="translate(0.151 0.151) scale(0.697)" gradientUnits="objectBoundingBox"><stop offset="0" stop-color="#260d0d"/><stop offset="1" stop-color="#140505"/></radialGradient><filter id="b" x="204.854" y="855.474" width="164.526" height="126.515" filterUnits="userSpaceOnUse"><feOffset dx="-1" dy="7" input="SourceAlpha"/><feGaussianBlur stdDeviation="6.5" result="c"/><feFlood flood-opacity="0.361"/><feComposite operator="in" in2="c"/><feComposite in="SourceGraphic"/></filter><linearGradient id="d" x1="0.5" y1="0" x2="0.5" y2="1" gradientTransform="matrix(1, 0, 0, 1, 0, 0)" xlink:href="#a"/><filter id="e" x="104.2" y="920.315" width="92.903" height="65.719" filterUnits="userSpaceOnUse"><feOffset dy="4" input="SourceAlpha"/><feGaussianBlur stdDeviation="6" result="f"/><feFlood flood-opacity="0.369"/><feComposite operator="in" in2="f"/><feComposite in="SourceGraphic"/></filter><radialGradient id="g" cx="0.513" cy="0.353" r="0.721" gradientTransform="matrix(0.818, 0.005, -0.004, 0.994, 0.095, -0.001)" xlink:href="#a"/></defs><g transform="translate(-713 3.654)"><g transform="matrix(1, 0, 0, 1, 713, -3.65)" filter="url(#b)"><path d="M505.5,668.5c-3.5-4.5-30-11,0-54s68.5-13,68.5-13,67,54,33.5,70S509,673,505.5,668.5Z" transform="translate(-266 276.65)" fill="url(#a)"/></g><g transform="matrix(1, 0, 0, 1, 713, -3.65)" filter="url(#e)"><path d="M407.5,686c-4.5-1.5-25.5-.5-17.5-16s33.5-12,33.5-12,33.25,18,17.25,25.25S407.5,686,407.5,686Z" transform="translate(-266 276.65)" fill="url(#d)"/></g><path d="M587,643c13,11,20,25,14,6s-27-56-58-49-22,16-22,16S574,632,587,643Z" transform="translate(447 273)" fill="#fff" opacity="0.04"/><path d="M551,611c5.333,3.667,17.667,17.333,23,4.333S545.667,607.333,551,611Z" transform="translate(447 273)" fill="#fff" opacity="0.1"/><path d="M1563.751,1325.482a68.424,68.424,0,0,1-21.155-3.2c-9.092-3.034-16.173-8.112-21.046-15.091a41.538,41.538,0,0,1-5.756-12.259,61.157,61.157,0,0,1-2.218-16.675,106.61,106.61,0,0,1,2.382-21.756A194.315,194.315,0,0,1,1524,1229c3.62-9.864,6.843-19.611,9.58-28.971,2.6-8.893,4.845-17.722,6.671-26.24a299.436,299.436,0,0,0,6.3-45.646c1.637-27.846-1.1-51.03-3.745-73.45-1.829-15.5-3.556-30.132-3.811-45.693-.314-19.179-2.935-33.106-7.789-41.393-4.145-7.078-9.1-8.563-12.529-8.563A11.5,11.5,0,0,0,1514,960a14.67,14.67,0,0,0-4.044.767,18.94,18.94,0,0,0-8.2,5.37,26.86,26.86,0,0,0-5.839,11.664c-1.455,5.821-1.763,12.954-.918,21.2a44.233,44.233,0,0,1-.121,9.981,47.068,47.068,0,0,1-2.247,9.585,48.872,48.872,0,0,1-9.786,16.58,42.371,42.371,0,0,1-12.717,9.741,34.269,34.269,0,0,1-15.226,3.647,35.467,35.467,0,0,1-19.863-6.347c-7-4.66-13.4-11.789-19.042-21.188a83.562,83.562,0,0,1-9.1-20.5,62.429,62.429,0,0,1-2.376-17.982c.156-11.328,3.332-21.642,6.4-31.617,2.663-8.648,5.416-17.591,6.1-27.005a58.305,58.305,0,0,0-.746-14.7A64.725,64.725,0,0,0,1411,893c-4.194-8.934-8.82-15.571-13.752-19.726-4.19-3.531-8.656-5.321-13.273-5.321a21.071,21.071,0,0,0-9.073,2.195,33.729,33.729,0,0,0-7.289,4.829A44.3,44.3,0,0,0,1361,882c-.014.007-1.4.666-2.922,3.391a26.174,26.174,0,0,0-2.3,5.944,58.235,58.235,0,0,0-1.654,10.291c-.8,9.943-.047,22.786,2.234,38.172,2.851,19.233,8.114,42.516,15.641,69.2a235.748,235.748,0,0,1,7.2,34.285,133.523,133.523,0,0,1,.869,26.9,79.441,79.441,0,0,1-4.151,20.393,55.1,55.1,0,0,1-7.864,14.778,50.274,50.274,0,0,1-24.255,17.229,67.715,67.715,0,0,1-21.736,3.562c-1.813,0-3.208-.078-4.059-.144a50.83,50.83,0,0,1-16.394-4.316,47.7,47.7,0,0,1-10.375-6.359,45.818,45.818,0,0,1-9.51-10.53c-6.023-9.185-9.2-20.981-9.454-35.062a134.425,134.425,0,0,1,2.479-26.72A238.6,238.6,0,0,1,1284,1009c27.729-80.106,27.574-103.764,27.409-128.811-.048-7.373-.1-15,.591-24.189a50.9,50.9,0,0,0-1.94-18.9,35.5,35.5,0,0,0-7.6-13.649,24.026,24.026,0,0,0-7.194-5.406,18.82,18.82,0,0,0-8.184-1.906,19.106,19.106,0,0,0-7.65,1.637,25.941,25.941,0,0,0-7.52,5.134,42.159,42.159,0,0,0-6.956,8.962A71.973,71.973,0,0,0,1259,845a137.668,137.668,0,0,1-7.229,17.378,58.525,58.525,0,0,1-7.109,11.069,24.354,24.354,0,0,1-6.868,5.846,13.689,13.689,0,0,1-6.505,1.708,16.686,16.686,0,0,1-8.911-2.882A43.553,43.553,0,0,1,1215,872c-2.046-2.046-4.609-6.124-7.576-10.846-7.407-11.787-17.552-27.929-29.3-27.929a13.431,13.431,0,0,0-5.035,1,19.433,19.433,0,0,0-5.209,3.24c-3.674,3.1-7.332,7.992-10.875,14.532-4.733,8.738-9.879,15.442-15.294,19.925a30.226,30.226,0,0,1-7.759,4.782,19.957,19.957,0,0,1-7.551,1.556,18.787,18.787,0,0,1-11.437-4.025,34.223,34.223,0,0,1-9.345-11.565,69.6,69.6,0,0,1-6.3-18.335A120.142,120.142,0,0,1,1097,820a81.63,81.63,0,0,0-13.667-44.672,55.528,55.528,0,0,0-13.653-14.371,32.587,32.587,0,0,0-7.531-3.993,22.418,22.418,0,0,0-7.619-1.407,19.062,19.062,0,0,0-10.925,3.455,31.971,31.971,0,0,0-9.531,11.13C1027.927,781.222,1024.2,798,1023,820c-.818,15-1.026,28.081-.637,40a265.3,265.3,0,0,0,2.668,30.639c2.727,18.311,7.25,33.562,12.486,51.221,8.321,28.061,18.677,62.984,27.482,128.141,2.4,17.743,1.9,33.816-1.465,47.772-3.062,12.681-8.452,23.5-16.022,32.164a61.9,61.9,0,0,1-22.306,16.27,64.48,64.48,0,0,1-12.78,3.971,67.549,67.549,0,0,1-13.249,1.306,70.068,70.068,0,0,1-30.569-7.058,67.224,67.224,0,0,1-13.386-8.618,64.3,64.3,0,0,1-18.971-26.279,70.8,70.8,0,0,1-4.281-17.231c-1.582-13.063.11-27.293,5.029-42.3,9.441-28.794,18.626-60.073,26.562-90.457,9.551-36.564,17.123-71.043,22.506-102.478,6.3-36.775,9.487-68.871,9.48-95.4A232.151,232.151,0,0,0,992.6,742.6a127,127,0,0,0-3.886-16.334,81.578,81.578,0,0,0-5.682-13.8,50.253,50.253,0,0,0-11-14.3A38.46,38.46,0,0,0,957,690c-10-2.821-17.926-4.193-24.223-4.193-6.756,0-11.555,1.6-14.672,4.9-5.767,6.1-5.135,17.246-4.4,30.147.488,8.608,1.042,18.364-.4,27.592-1.65,10.565-5.674,18.923-12.3,25.551a60.032,60.032,0,0,1-16.387,11.953,37.292,37.292,0,0,1-16.066,3.869,30.443,30.443,0,0,1-13.094-2.922,34.786,34.786,0,0,1-11.159-8.524,47.656,47.656,0,0,1-7.126-10.859,66.779,66.779,0,0,1-4.878-14.149,93.278,93.278,0,0,1-2.2-17.239A127.538,127.538,0,0,1,831,716c1.409-11.625,2.251-22.77,2.5-33.125A218.966,218.966,0,0,0,832.44,653.8a112.418,112.418,0,0,0-4.887-23.537c-2.338-6.886-5.356-12.445-8.969-16.522a23.961,23.961,0,0,0-18.553-8.559A32.563,32.563,0,0,0,793,606a27.232,27.232,0,0,1-5.882.673,22.341,22.341,0,0,1-10.391-2.521,28.655,28.655,0,0,1-8.24-6.646c-4.272-4.866-7.964-11.652-10.972-20.168a131.863,131.863,0,0,1-5.2-20.169c-.958-5.374-1.3-9.015-1.314-9.168a41.39,41.39,0,0,0-15.5-9.75,32.637,32.637,0,0,0-10.573-1.805c-8.945,0-17.668,3.888-25.926,11.556-6.481,6.018-10.834,14.85-12.937,26.25-1.767,9.575-1.956,20.93-.562,33.75,2.494,22.944,9.44,44.865,13.5,54,1.489,3.349,3.353,11.837,4.866,22.151a330.822,330.822,0,0,1,3.305,39.612,243.273,243.273,0,0,1-2.7,44.916c-2.619,15.847-7.047,28.654-13.161,38.064a44.112,44.112,0,0,1-14.332,14.239,37.041,37.041,0,0,1-9.359,3.916,42.8,42.8,0,0,1-10.97,1.375h-.009a59.357,59.357,0,0,1-12.87-1.514A91.631,91.631,0,0,1,629,820a60.52,60.52,0,0,1-10.394-5.489,55.85,55.85,0,0,1-8.645-7.074,58.424,58.424,0,0,1-7.015-8.539,68.044,68.044,0,0,1-5.505-9.886,97.267,97.267,0,0,1-6.956-23.334,170.758,170.758,0,0,1-2.347-27.288c-.48-38.595,8.72-84.859,17.618-129.6,6.174-31.041,12-60.359,14.332-85.612,1.248-13.54,1.377-24.711.394-34.154a78.138,78.138,0,0,0-2.6-13.811A45.164,45.164,0,0,0,613,464c-6.165-9.865-12.35-17.287-18.383-22.061-5.5-4.351-10.932-6.557-16.151-6.557-4.948,0-9.707,1.969-14.144,5.854-4.007,3.507-7.673,8.489-10.9,14.808a96.4,96.4,0,0,0-7.243,19.631A106.158,106.158,0,0,0,543,496c-.434,8.254-5.058,16-13.019,21.818a44.98,44.98,0,0,1-12.789,6.441A48.209,48.209,0,0,1,502.4,526.6h-.009a44.023,44.023,0,0,1-16.4-3.087,41.817,41.817,0,0,1-14.754-9.985c-5.532-5.766-9.732-13.255-12.483-22.258-3.051-9.984-4.315-21.849-3.756-35.264.912-21.9,1.059-41.57.437-58.469A323.245,323.245,0,0,0,452.5,362.5a108.192,108.192,0,0,0-3.688-17.031A22.427,22.427,0,0,0,447,341l1207.5-3.654v768.237a61.759,61.759,0,0,1-12.6-2.055,36.137,36.137,0,0,1-10.382-4.654,25.751,25.751,0,0,1-7.516-7.7,29.392,29.392,0,0,1-4-11.179c-2.855-18.4-7.311-31.749-13.245-39.684-5.036-6.734-10.116-8.148-13.492-8.148A10.422,10.422,0,0,0,1589,1033a16.867,16.867,0,0,0-5.922,4.2,35.686,35.686,0,0,0-5.416,7.24,60.523,60.523,0,0,0-5.287,12.432c-3.7,11.975-5.347,27.362-4.891,45.734.57,22.965,4.445,50.686,11.515,82.391,8.965,40.2,13.011,72.729,12.026,96.686a101.579,101.579,0,0,1-3.534,24.247,38.992,38.992,0,0,1-6.193,12.928,17.321,17.321,0,0,1-6.409,5.326A8.385,8.385,0,0,1,1572,1325,62.624,62.624,0,0,1,1563.751,1325.482Z" transform="translate(266 -341)" fill="url(#g)"/><path d="M772,519.5s-14-32,15.5-15S859.5,476,853,442s-24.5-118-21.5-193.5c0,0,35.5,188.5,37.5,204.5s5,49-8.5,66.5-43,28.5-62.5,23S772,519.5,772,519.5Z" transform="translate(447 273)" fill="#fff" opacity="0.04"/><path d="M792.5,532s-24.5-18.5,2-10.5,41-7.5,41-7.5,20.5-10,6.5,5-23,16.5-36.5,16.5S792.5,532,792.5,532Z" transform="translate(447 273)" fill="#fff" opacity="0.1"/><path d="M1028.5,239s30,19,44.5-26,57-18.5,59-3.5c1,1-23-30-41-13s-18,31-18,31-13.5,40-41,20.5C1022.5,241,1028.5,239,1028.5,239Z" transform="translate(447 273)" fill="#fff" opacity="0.06"/><path d="M1132.03,474S1101,459,1113,486s75,14,77-31-15-102-15-102,23,118-34,121C1142,475,1132.03,474,1132.03,474Z" transform="translate(447 273)" fill="#fff" opacity="0.05"/><path d="M1130.667,493.333c-7.667-3-23.667-11.667,3.333-6S1138.333,496.333,1130.667,493.333Z" transform="translate(447 273)" fill="#fff" opacity="0.1"/><path d="M1168.5,277.5c1.5,1,30.5-62,68.5-13a219.556,219.556,0,0,1,7,49.5s15-58-15.5-71.5-50,9-50,9S1167,276.5,1168.5,277.5Z" transform="translate(447 273)" fill="#fff" opacity="0.05"/><path d="M1261,397s-35-12.5-15.5,10.5,63.5,3.5,61-15,8-53,29.5-52c-1-1-31-3-32,32.5S1261,397,1261,397Z" transform="translate(447 273)" fill="#fff" opacity="0.04"/><path d="M1252,408s7,8,12.5,3-16-12.5-16-10.5S1252,408,1252,408Z" transform="translate(398.899 474.634) rotate(-9)" fill="#fff" opacity="0.1"/><path d="M1379,492c-5.333-53.667,16.667-91.333,38.333-82S1436,426.667,1436,426.667l-11.667-7S1394,393.5,1381.5,469C1380.5,494.5,1379,492,1379,492Z" transform="translate(447 273)" fill="#fff" opacity="0.08"/><path d="M1360,681.5s-20.5-8-5,13,43.5,10.5,49-13-3.5-87-11-124c.5-.5,18,123.5-24,124Z" transform="translate(447 273)" fill="#fff" opacity="0.04"/><path d="M1366.5,693s-20.5-6.75-3.5,5,33.25-3.5,12-3.75C1366.5,691.75,1366.5,693,1366.5,693Z" transform="translate(447 273)" fill="#fff" opacity="0.1"/><path d="M923.5,208.5s-3-59-36.5-69.5-41,24.5-47.5,37c-.5,0,13-64,55.5-40.5C924.5,156,923.5,208.5,923.5,208.5Z" transform="translate(447 273)" fill="#fff" opacity="0.07"/><path d="M669,149s50,31,51-41,53-41,53-41-49-16.4-50,41-24.6,57.2-24.6,57.2S679,169.6,669,154C663.8,148.4,669,149,669,149Z" transform="translate(447 273)" fill="#fff" opacity="0.07"/><path d="M659,70s18.5-71-18.5-87c-22-8.5-26,.5-36.5-10.5,0-1-9.5,9.5,18.5,10.5S659,17,659,29Z" transform="translate(447 273)" fill="#fff" opacity="0.06"/><path d="M452.5,160.825S422.5,144,432,177.5s67.5,15,74,0,15-23,6.5-90.5S487.5-20,503-63.5,564.5-83,564.5-83,517-120,497-71.5s22,147.5,9,201S452.5,160.825,452.5,160.825Z" transform="translate(447 273)" fill="#fff" opacity="0.05"/><path d="M453,187.5s-18.5-13,0-7,34,11,14,11C456.4,192.6,453,187.5,453,187.5Z" transform="translate(447 273)" fill="#fff" opacity="0.1"/><path d="M295-106.333s-11.333-24.333,9.667-13.333,38,17,50-41C370.333-208.667,412-188,416-185c1.333,1.333-52.333-27.333-61.333,45.333S295-106.333,295-106.333Z" transform="translate(447 273)" fill="#fff" opacity="0.06"/><path d="M325.667-100.333c9.333-.667,12-6,0-4.667S308-105.333,304-108.667s-2.333,1.333,0,3.667S316.333-99.667,325.667-100.333Z" transform="translate(447 273)" fill="#fff" opacity="0.1"/><path d="M442.333-33s23-95,4.667-129.333c-8-11.667,9.667,51-2,101.333C441-34.667,442.333-33,442.333-33Z" transform="translate(447 273)" fill="#fff" opacity="0.06"/><path d="M419.667,666.333s-10-6.667,0-5.333,10.667,8,1.667,5.333" transform="translate(447 273)" fill="#fff" opacity="0.13"/></g></svg>